<?xml version="1.0" encoding="utf-8"?>
<!-- Generator: Adobe Illustrator 26.0.3, SVG Export Plug-In . SVG Version: 6.00 Build 0)  -->
<svg version="1.1" id="Layer_1" xmlns="http://www.w3.org/2000/svg" xmlns:xlink="http://www.w3.org/1999/xlink" x="0px" y="0px" viewBox="0 0 100 100" style="enable-background:new 0 0 100 100;" xml:space="preserve" fill="currentColor">
	<path d="M88.4,34.2v-2H73.2V1.1H28.4V5H13.2v2h15.2v8.1H13.2v2h15.2v9.2H13.2v2h15.2v9.1H13.2v2h15.2v19.8H13.2v2h15.2v8.1H13.2v2
		h15.2v9.1H13.2v2h15.2v9.2H13.2v2h15.2v4h44.8v-31h15.2v-2H73.2v-9.2h15.2v-2H73.2v-9.2h15.2v-2H73.2v-8H88.4z M70.2,94.6H31.4V4.1
		h38.8V94.6z" />
	<polygon points="47.6,64 53.6,64 53.6,53.3 65.1,53.3 65.1,47.3 53.6,47.3 53.6,36.5 47.6,36.5 47.6,47.3 37.5,47.3 37.5,53.3 
		47.6,53.3 	" />
</svg>