<?xml version="1.0" encoding="utf-8"?>
<!-- Generator: Adobe Illustrator 26.0.3, SVG Export Plug-In . SVG Version: 6.00 Build 0)  -->
<svg version="1.1" id="Calque_1" xmlns="http://www.w3.org/2000/svg" xmlns:xlink="http://www.w3.org/1999/xlink" x="0px" y="0px"
	 viewBox="0 0 100 100" style="enable-background:new 0 0 100 100;" xml:space="preserve" fill="currentColor">
<path d="M78.5,40v-2H66.9V20.1L30.4,0.5V9h-9.5v2h9.5v5h-9.5v2h9.5v5h-9.5v2h9.5v5h-9.5v2h9.5v8.7L41.5,50l-11.2,9.3V68h-9.5v2h9.5
	v5h-9.5v2h9.5v5h-9.5v2h9.5v5h-9.5v2h9.5v8.5l36.5-20.2V61h11.6v-2H66.9v-5h11.6v-2H66.9v-5h11.6v-2H66.9v-5H78.5z M63.9,77.6
	L33.4,94.5V60.7L46.2,50L33.4,39.3V5.5l30.5,16.4V77.6z"/>
</svg>
