<?xml version="1.0" encoding="utf-8"?>
<!-- Generator: Adobe Illustrator 22.1.0, SVG Export Plug-In . SVG Version: 6.00 Build 0)  -->
<svg version="1.1" id="Calque_1" xmlns="http://www.w3.org/2000/svg" xmlns:xlink="http://www.w3.org/1999/xlink" x="0px" y="0px" viewBox="0 0 100 100" style="enable-background:new 0 0 100 100;" xml:space="preserve">
	<style type="text/css">
	.st0{fill:none;stroke:#000000;stroke-width:3;stroke-linecap:square;}
	.st1{fill:none;stroke:#000000;stroke-width:2;}
</style>
	<g>
		<polygon class="st0" points="29,3 29,40 41,50 29,60 29,97 72,75 72,25" />
	</g>
	<line class="st1" x1="18" y1="10" x2="28" y2="10" />
	<line class="st1" x1="18" y1="17" x2="28" y2="17" />
	<line class="st1" x1="18" y1="24" x2="28" y2="24" />
	<line class="st1" x1="18" y1="31" x2="28" y2="31" />
	<line class="st1" x1="18" y1="69" x2="28" y2="69" />
	<line class="st1" x1="18" y1="76" x2="28" y2="76" />
	<line class="st1" x1="18" y1="83" x2="28" y2="83" />
	<line class="st1" x1="18" y1="90" x2="28" y2="90" />
	<line class="st1" x1="72" y1="39" x2="82" y2="39" />
	<line class="st1" x1="72" y1="46" x2="82" y2="46" />
	<line class="st1" x1="72" y1="53" x2="82" y2="53" />
	<line class="st1" x1="72" y1="60" x2="82" y2="60" />
</svg>