<?xml version="1.0" encoding="utf-8"?>
<!-- Generator: Adobe Illustrator 26.0.3, SVG Export Plug-In . SVG Version: 6.00 Build 0)  -->
<svg version="1.1" id="Calque_1" xmlns="http://www.w3.org/2000/svg" xmlns:xlink="http://www.w3.org/1999/xlink" x="0px" y="0px"
	 viewBox="0 0 100 100" style="enable-background:new 0 0 100 100;" xml:space="preserve">
<style type="text/css">
	.st0{fill:none;stroke:#000000;stroke-width:3;stroke-linecap:square;}
	.st1{fill:none;stroke:#000000;stroke-width:2;}
</style>
<g>
	<polygon class="st0" points="29,3 29,40 41,50 29,60 29,97 72,75 72,25 	"/>
</g>
<line class="st1" x1="17.8" y1="5.7" x2="27.8" y2="5.7"/>
<line class="st1" x1="17.8" y1="15" x2="27.8" y2="15"/>
<line class="st1" x1="17.8" y1="24.3" x2="27.8" y2="24.3"/>
<line class="st1" x1="17.8" y1="33.7" x2="27.8" y2="33.7"/>
<line class="st1" x1="17.8" y1="10.4" x2="27.8" y2="10.4"/>
<line class="st1" x1="17.8" y1="19.7" x2="27.8" y2="19.7"/>
<line class="st1" x1="17.8" y1="29" x2="27.8" y2="29"/>
<line class="st1" x1="17.8" y1="38.3" x2="27.8" y2="38.3"/>
<line class="st1" x1="17.8" y1="62.1" x2="27.8" y2="62.1"/>
<line class="st1" x1="17.8" y1="71.4" x2="27.8" y2="71.4"/>
<line class="st1" x1="17.8" y1="80.7" x2="27.8" y2="80.7"/>
<line class="st1" x1="17.8" y1="90" x2="27.8" y2="90"/>
<line class="st1" x1="17.8" y1="66.7" x2="27.8" y2="66.7"/>
<line class="st1" x1="17.8" y1="76.1" x2="27.8" y2="76.1"/>
<line class="st1" x1="17.8" y1="85.4" x2="27.8" y2="85.4"/>
<line class="st1" x1="17.8" y1="94.7" x2="27.8" y2="94.7"/>
<line class="st1" x1="73.1" y1="34.2" x2="83.1" y2="34.2"/>
<line class="st1" x1="73.1" y1="43.5" x2="83.1" y2="43.5"/>
<line class="st1" x1="73.1" y1="52.8" x2="83.1" y2="52.8"/>
<line class="st1" x1="73.1" y1="62.1" x2="83.1" y2="62.1"/>
<line class="st1" x1="73.1" y1="38.8" x2="83.1" y2="38.8"/>
<line class="st1" x1="73.1" y1="48.2" x2="83.1" y2="48.2"/>
<line class="st1" x1="73.1" y1="57.5" x2="83.1" y2="57.5"/>
<line class="st1" x1="73.1" y1="66.8" x2="83.1" y2="66.8"/>
</svg>
