<?xml version="1.0" encoding="utf-8"?>
<!-- Generator: Adobe Illustrator 26.0.3, SVG Export Plug-In . SVG Version: 6.00 Build 0)  -->
<svg version="1.1" id="Calque_1" xmlns="http://www.w3.org/2000/svg" xmlns:xlink="http://www.w3.org/1999/xlink" x="0px" y="0px" viewBox="0 0 100 100" style="enable-background:new 0 0 100 100;" xml:space="preserve" fill="currentColor">
	<path d="M39.3,55.3c-1.1,1.2-2.5,1.8-4.2,1.8c-2.1,0-3.8-0.8-5-2.4c-1.2-1.6-1.8-3.8-1.8-6.5c0-3,0.7-5.3,2.1-6.9
		c1.2-1.4,2.7-2.1,4.6-2.1c2.5,0,4.3,0.9,5.4,2.8c0.6,1.1,1,2.1,1,3.2h-3.1c-0.2-0.8-0.5-1.4-0.8-1.9c-0.6-0.7-1.4-1.1-2.5-1.1
		c-1.1,0-2,0.5-2.7,1.6c-0.6,1-1,2.5-1,4.5s0.3,3.4,1,4.3c0.7,1,1.6,1.4,2.6,1.4c1.1,0,1.9-0.4,2.5-1.2c0.3-0.4,0.6-1.1,0.8-2h3.1
		C41.1,52.6,40.4,54.1,39.3,55.3z" />
	<path d="M46.5,56.6h-2.9V39.5h4.5l2.7,13.5l2.7-13.5h4.4v17.1H55V45c0-0.3,0-0.8,0-1.4c0-0.6,0-1.1,0-1.4l-2.8,14.4h-3l-2.8-14.4
		c0,0.3,0,0.8,0,1.4c0,0.6,0,1.1,0,1.4V56.6z" />
	<path d="M67,50.4h-3.1v6.2h-3.1V39.5h6.4c1.5,0,2.7,0.4,3.5,1.3c0.9,0.9,1.3,2.3,1.3,4.1c0,2-0.4,3.4-1.3,4.3
		C69.9,50,68.6,50.4,67,50.4z M68.4,46.9c0.4-0.4,0.6-1.1,0.6-2c0-0.9-0.2-1.5-0.6-1.9c-0.4-0.4-1-0.6-1.7-0.6h-2.9v5h2.9
		C67.5,47.5,68,47.3,68.4,46.9z" />
	<path d="M95.5,50.1H80V10H50.7V-3.5h-2V10H20v18.5H5.5v2H20v39.3H5.5v2H20V90h28.7v13.5h2V90H80V52.1h15.5V50.1z M77,87H23V13h54V87
	z" />
</svg>