<?xml version="1.0" encoding="utf-8"?>
<!-- Generator: Adobe Illustrator 26.0.3, SVG Export Plug-In . SVG Version: 6.00 Build 0)  -->
<svg version="1.1" id="Calque_1" xmlns="http://www.w3.org/2000/svg" xmlns:xlink="http://www.w3.org/1999/xlink" x="0px" y="0px" viewBox="0 0 100 100" style="enable-background:new 0 0 100 100;" xml:space="preserve" fill="currentColor">
	<path d="M68.7,73.8h-34v-50h34V73.8z M36.1,72.3h31v-47h-31V72.3z" />
	<path d="M95.5,26.6v-2h-15v-20h-60V85h-15v2h15v8.6h60V75.5h15v-2h-15V59.2h15v-2h-15v-15h15v-2h-15V26.6H95.5z M23.5,83l7.1,3.1
	l-7.1,3.1V83z M77.5,92.6h-54v-1.2l12.1-5.3l-12.1-5.3V7.6h54V92.6z" />
	<defs>
		<rect id="SVGID_1_" x="35.4" y="24.6" width="32.5" height="48.5" />
	</defs>
	<clipPath id="frame">
		<use xlink:href="#SVGID_1_" style="overflow:visible;" />
	</clipPath>
	<g style="clip-path:url(#frame);">
		<path d="M45,22.6c0-2.5,0.3-4.4,0.8-5.9c0.5-1.5,1.3-2.7,2.3-3.5c1-0.8,2.2-1.2,3.8-1.2c1.1,0,2.1,0.2,2.9,0.7
				c0.8,0.4,1.5,1.1,2.1,1.9c0.5,0.8,1,1.9,1.3,3.1s0.5,2.8,0.5,4.9c0,2.4-0.2,4.4-0.8,5.9c-0.5,1.5-1.2,2.7-2.2,3.5
				s-2.3,1.2-3.8,1.2c-2,0-3.6-0.7-4.7-2.2C45.6,29.3,45,26.5,45,22.6z M47.6,22.6c0,3.4,0.4,5.7,1.2,6.8c0.8,1.1,1.8,1.7,3,1.7
				c1.2,0,2.2-0.6,3-1.7s1.2-3.4,1.2-6.8c0-3.4-0.4-5.7-1.2-6.8s-1.8-1.7-3-1.7c-1.2,0-2.1,0.5-2.8,1.5C48,16.9,47.6,19.2,47.6,22.6
				z" />
		<path d="M54.6,56.9H52V40.6c-0.6,0.6-1.4,1.2-2.4,1.8c-1,0.6-1.9,1-2.7,1.3v-2.5c1.4-0.7,2.7-1.5,3.7-2.4s1.8-1.9,2.3-2.8h1.6
				V56.9z" />
		<path d="M58.4,78.4v2.4H44.6c0-0.6,0.1-1.2,0.3-1.8c0.3-0.9,0.9-1.9,1.7-2.8c0.8-0.9,1.9-2,3.3-3.1c2.3-1.9,3.8-3.3,4.6-4.4
				s1.2-2.1,1.2-3.1c0-1-0.4-1.9-1.1-2.6c-0.7-0.7-1.7-1-2.8-1c-1.2,0-2.2,0.4-2.9,1.1s-1.1,1.8-1.1,3.1L45.1,66
				c0.2-2,0.9-3.4,2-4.5s2.7-1.5,4.7-1.5c2,0,3.6,0.6,4.7,1.7c1.2,1.1,1.7,2.5,1.7,4.1c0,0.8-0.2,1.6-0.5,2.4s-0.9,1.6-1.7,2.5
				c-0.8,0.9-2.1,2.1-3.9,3.7c-1.5,1.3-2.5,2.2-2.9,2.6s-0.8,0.9-1.1,1.4H58.4z" />
	</g>
</svg>