<?xml version="1.0" encoding="utf-8"?>
<!-- Generator: Adobe Illustrator 26.5.3, SVG Export Plug-In . SVG Version: 6.00 Build 0)  -->
<svg version="1.1" id="Layer_1" xmlns="http://www.w3.org/2000/svg" xmlns:xlink="http://www.w3.org/1999/xlink" x="0px" y="0px"
	 viewBox="0 0 100 100" style="enable-background:new 0 0 100 100;" xml:space="preserve" fill="currentColor">
<path d="M71.1,90.1H26.8V10h44.3V90.1z M29.8,87.1h38.3V13H29.8V87.1z"/>
<rect x="12.8" y="37" width="16.3" height="2"/>
<rect x="12.8" y="56.4" width="16.3" height="2"/>
<rect x="70.8" y="41" width="16.3" height="2"/>
<rect x="70.8" y="54.7" width="16.3" height="2"/>
<rect x="70.8" y="68.3" width="16.3" height="2"/>
<rect x="70.8" y="27.6" width="16.3" height="2"/>
<g>
	<path d="M38.7,55.5h-5.6V40.2h5.6c0.8,0,1.5,0.1,2,0.3c0.9,0.4,1.6,1,2.2,1.9c0.5,0.8,0.8,1.6,0.9,2.5s0.2,1.7,0.2,2.5
		c0,2-0.3,3.8-1,5.2C42.1,54.5,40.7,55.5,38.7,55.5z M40.7,44.1c-0.4-0.8-1.2-1.2-2.5-1.2h-2.5v10h2.5c1.3,0,2.2-0.7,2.7-2.2
		c0.3-0.8,0.4-1.8,0.4-2.9C41.3,46.1,41.1,44.9,40.7,44.1z"/>
	<path d="M54.1,52.2c-0.1,0.7-0.4,1.4-0.9,2c-0.8,1.1-2,1.7-3.4,1.7c-1.2,0-2.3-0.5-3.2-1.4c-0.9-0.9-1.4-2.4-1.4-4.5
		c0-2,0.4-3.5,1.3-4.5s1.9-1.6,3.3-1.6c0.8,0,1.5,0.2,2.2,0.5c0.6,0.4,1.2,0.9,1.6,1.7c0.4,0.7,0.6,1.5,0.7,2.3
		c0.1,0.5,0.1,1.3,0.1,2.2h-6.6c0,1.1,0.3,1.9,0.9,2.4c0.3,0.3,0.8,0.4,1.2,0.4c0.5,0,0.9-0.2,1.3-0.5c0.2-0.2,0.3-0.4,0.5-0.8H54.1
		z M51.6,48.7c0-0.8-0.2-1.4-0.6-1.8c-0.4-0.4-0.8-0.6-1.3-0.6c-0.6,0-1,0.2-1.3,0.6s-0.5,1-0.6,1.7H51.6z"/>
	<path d="M64.2,48.2h-2.6c0-0.4-0.2-0.8-0.4-1.1c-0.3-0.5-0.7-0.7-1.3-0.7c-0.8,0-1.4,0.5-1.7,1.5C58.1,48.4,58,49.1,58,50
		c0,0.8,0.1,1.5,0.2,2c0.3,0.9,0.9,1.4,1.7,1.4c0.6,0,1-0.2,1.2-0.6s0.4-0.9,0.4-1.5h2.6c-0.1,0.9-0.3,1.8-0.8,2.6
		c-0.8,1.3-1.9,1.9-3.5,1.9s-2.7-0.5-3.4-1.6c-0.7-1.1-1.1-2.5-1.1-4.2c0-1.9,0.4-3.5,1.2-4.5s1.9-1.6,3.3-1.6c1.2,0,2.2,0.3,2.9,1
		C63.6,45.5,64.1,46.6,64.2,48.2z"/>
</g>
</svg>
