<?xml version="1.0" encoding="utf-8"?>
<!-- Generator: Adobe Illustrator 26.0.3, SVG Export Plug-In . SVG Version: 6.00 Build 0)  -->
<svg version="1.1" id="Layer_1" xmlns="http://www.w3.org/2000/svg" xmlns:xlink="http://www.w3.org/1999/xlink" x="0px" y="0px"
	 viewBox="0 0 100 100" style="enable-background:new 0 0 100 100;" xml:space="preserve">
<style type="text/css">
	.st0{fill:none;stroke:#000000;stroke-width:3;stroke-linecap:square;}
	.st1{fill:none;stroke:#000000;stroke-width:2;}
	.st2{font-family:'ArialMT';}
	.st3{font-size:20px;}
</style>
<path class="st0" d="M28.3,11.5h43.5v77H28.3V11.5z"/>
<line class="st1" x1="71.6" y1="81" x2="87.6" y2="81"/>
<line class="st1" x1="71.6" y1="24.4" x2="87.6" y2="24.4"/>
<line class="st1" x1="71.6" y1="33.8" x2="87.6" y2="33.8"/>
<line class="st1" x1="71.6" y1="43.3" x2="87.6" y2="43.3"/>
<line class="st1" x1="71.6" y1="52.7" x2="87.6" y2="52.7"/>
<line class="st1" x1="71.6" y1="62.1" x2="87.6" y2="62.1"/>
<line class="st1" x1="71.6" y1="71.6" x2="87.6" y2="71.6"/>
<line class="st1" x1="71.6" y1="85.7" x2="87.6" y2="85.7"/>
<line class="st1" x1="71.6" y1="29.1" x2="87.6" y2="29.1"/>
<line class="st1" x1="71.6" y1="15" x2="87.6" y2="15"/>
<line class="st1" x1="71.6" y1="19.7" x2="87.6" y2="19.7"/>
<line class="st1" x1="71.6" y1="38.6" x2="87.6" y2="38.6"/>
<line class="st1" x1="71.6" y1="48" x2="87.6" y2="48"/>
<line class="st1" x1="71.6" y1="57.4" x2="87.6" y2="57.4"/>
<line class="st1" x1="71.6" y1="66.9" x2="87.6" y2="66.9"/>
<line class="st1" x1="71.6" y1="76.3" x2="87.6" y2="76.3"/>
<line class="st1" x1="12.3" y1="76.7" x2="28.3" y2="76.7"/>
<line class="st1" x1="12.3" y1="24" x2="28.3" y2="24"/>
<line class="st1" x1="12.3" y1="32.8" x2="28.3" y2="32.8"/>
<line class="st1" x1="12.3" y1="41.6" x2="28.3" y2="41.6"/>
<line class="st1" x1="12.3" y1="50.4" x2="28.3" y2="50.4"/>
<line class="st1" x1="12.3" y1="59.2" x2="28.3" y2="59.2"/>
<line class="st1" x1="12.3" y1="68" x2="28.3" y2="68"/>
<text id="text25" transform="matrix(1 0 0 1 31.8851 55.8181)" class="st2 st3">1</text>
<text transform="matrix(1 0 0 1 55.4262 55.5105)" class="st2 st3">s</text>
<text transform="matrix(1 0 0 1 64.1284 55.8181)" class="st2 st3">.</text>
<text transform="matrix(1 0 0 1 40.33 55.8179)" class="st2 st3">6</text>
</svg>
