<?xml version="1.0" encoding="utf-8"?>
<!-- Generator: Adobe Illustrator 26.0.3, SVG Export Plug-In . SVG Version: 6.00 Build 0)  -->
<svg version="1.1" id="Layer_1" xmlns="http://www.w3.org/2000/svg" xmlns:xlink="http://www.w3.org/1999/xlink" x="0px" y="0px" viewBox="0 0 100 100" style="enable-background:new 0 0 100 100;" xml:space="preserve" fill="currentColor">
	<path d="M87.6,16v-2H73.3v-4H26.8v13H12.3v2h14.5v6.8H12.3v2h14.5v6.8H12.3v2h14.5v6.8H12.3v2h14.5v6.8H12.3v2h14.5V67H12.3v2h14.5
	v6.7H12.3v2h14.5V90h46.5v-3.3h14.3v-2H73.3V82h14.3v-2H73.3v-2.7h14.3v-2H73.3v-2.7h14.3v-2H73.3v-2.7h14.3v-2H73.3v-2.8h14.3v-2
	H73.3v-2.7h14.3v-2H73.3v-2.7h14.3v-2H73.3V49h14.3v-2H73.3v-2.7h14.3v-2H73.3v-2.7h14.3v-2H73.3v-2.8h14.3v-2H73.3v-2.7h14.3v-2
	H73.3v-2.7h14.3v-2H73.3v-2.7h14.3v-2H73.3V16H87.6z M70.3,87H29.8V13h40.5V87z" />
	<path d="M39.3,55.8h-1.8V44.6c-0.4,0.4-1,0.8-1.7,1.2s-1.3,0.7-1.9,0.9V45c1-0.5,1.8-1,2.6-1.7s1.3-1.3,1.6-1.9h1.1V55.8z" />
	<path d="M56,52.4l1.7-0.3c0.1,0.7,0.4,1.2,0.8,1.6c0.4,0.4,1.1,0.6,1.9,0.6c0.8,0,1.4-0.2,1.8-0.5s0.6-0.7,0.6-1.2
		c0-0.4-0.2-0.7-0.5-0.9c-0.2-0.2-0.8-0.4-1.8-0.6c-1.3-0.3-2.2-0.6-2.7-0.8s-0.9-0.6-1.1-1c-0.3-0.4-0.4-0.9-0.4-1.4
		c0-0.5,0.1-0.9,0.3-1.3c0.2-0.4,0.5-0.7,0.9-1c0.3-0.2,0.6-0.4,1.1-0.5c0.5-0.1,1-0.2,1.5-0.2c0.8,0,1.5,0.1,2.1,0.4s1.1,0.6,1.4,1
		s0.5,0.9,0.6,1.6L62.5,48c-0.1-0.5-0.3-1-0.7-1.2c-0.4-0.3-0.9-0.4-1.6-0.4c-0.8,0-1.4,0.1-1.7,0.4C58.2,47,58,47.3,58,47.7
		c0,0.2,0.1,0.4,0.2,0.6c0.1,0.2,0.4,0.3,0.7,0.5c0.2,0.1,0.7,0.2,1.6,0.4c1.2,0.3,2.1,0.6,2.6,0.8c0.5,0.2,0.9,0.5,1.2,0.9
		c0.3,0.4,0.4,0.9,0.4,1.5c0,0.6-0.2,1.1-0.5,1.7s-0.8,0.9-1.5,1.2s-1.4,0.4-2.2,0.4c-1.3,0-2.4-0.3-3.1-0.8
		C56.7,54.3,56.2,53.5,56,52.4z" />
	<path d="M65.9,55.8v-2h2v2H65.9z" />
	<path d="M50.3,45l-1.7,0.1c-0.2-0.7-0.4-1.2-0.7-1.5c-0.5-0.5-1.1-0.8-1.8-0.8c-0.6,0-1.1,0.2-1.5,0.5c-0.6,0.4-1,1-1.3,1.8
		s-0.5,1.9-0.5,3.3c0.4-0.6,0.9-1.1,1.6-1.4s1.3-0.5,1.9-0.5c1.2,0,2.2,0.4,3,1.3s1.2,2,1.2,3.3c0,0.9-0.2,1.7-0.6,2.5
		S49,55,48.4,55.4s-1.4,0.6-2.3,0.6c-1.5,0-2.7-0.5-3.6-1.6c-0.9-1.1-1.4-2.9-1.4-5.3c0-2.8,0.5-4.8,1.5-6c0.9-1.1,2.1-1.6,3.6-1.6
		c1.1,0,2,0.3,2.8,0.9S50.1,43.9,50.3,45z M43.1,51.2c0,0.6,0.1,1.2,0.4,1.7c0.3,0.6,0.6,1,1.1,1.3c0.5,0.3,0.9,0.4,1.5,0.4
		c0.7,0,1.4-0.3,1.9-0.9c0.5-0.6,0.8-1.4,0.8-2.4c0-1-0.3-1.8-0.8-2.3s-1.2-0.9-2-0.9c-0.8,0-1.5,0.3-2,0.9S43.1,50.3,43.1,51.2z" />
</svg>