<?xml version="1.0" encoding="utf-8"?>
<!-- Generator: Adobe Illustrator 26.0.3, SVG Export Plug-In . SVG Version: 6.00 Build 0)  -->
<svg version="1.1" id="Layer_1" xmlns="http://www.w3.org/2000/svg" xmlns:xlink="http://www.w3.org/1999/xlink" x="0px" y="0px" viewBox="0 0 100 100" style="enable-background:new 0 0 100 100;" xml:space="preserve" fill="currentColor">
	<path d="M92,17.4v-2H77.6V10h-55v14.7H8.1v2h14.5v14.2H8.1v2h14.5v14.2H8.1v2h14.5v14.2H8.1v2h14.5V90h55v-5.2H92v-2H77.6V66H92v-2
	H77.6V49.8H92v-2H77.6V33.6H92v-2H77.6V17.4H92z M74.6,87h-49V13h49V87z" />
	<path d="M29.7,60.5V41.4h5.6c1.1,0,2.1,0.2,2.8,0.6c0.7,0.4,1.2,1,1.6,1.8c0.4,0.8,0.6,1.6,0.6,2.5c0,0.8-0.2,1.6-0.5,2.3
		c-0.3,0.7-0.9,1.3-1.6,1.7c0.9,0.3,1.6,0.9,2.1,1.7c0.5,0.8,0.7,1.8,0.7,2.9c0,0.9-0.1,1.7-0.4,2.5c-0.3,0.8-0.7,1.4-1.1,1.8
		c-0.4,0.4-1,0.7-1.6,0.9c-0.7,0.2-1.5,0.3-2.4,0.3H29.7z M31.6,49.4h3.2c0.9,0,1.5-0.1,1.9-0.2c0.5-0.2,0.9-0.5,1.1-1
		c0.3-0.4,0.4-1,0.4-1.7c0-0.6-0.1-1.2-0.4-1.7c-0.2-0.5-0.6-0.8-1-1c-0.4-0.2-1.2-0.3-2.3-0.3h-3V49.4z M31.6,58.3h3.7
		c0.6,0,1.1,0,1.3-0.1c0.5-0.1,0.8-0.3,1.1-0.5c0.3-0.2,0.6-0.6,0.8-1.1c0.2-0.5,0.3-1,0.3-1.6c0-0.7-0.1-1.3-0.4-1.9
		c-0.3-0.5-0.7-0.9-1.2-1.1c-0.5-0.2-1.2-0.3-2.2-0.3h-3.5V58.3z" />
	<path d="M54.4,53.8l2,0.6c-0.4,2.1-1.2,3.7-2.2,4.8c-1.1,1.1-2.4,1.6-4,1.6c-1.6,0-2.9-0.4-3.9-1.3c-1-0.8-1.8-2.1-2.3-3.6
		c-0.5-1.6-0.8-3.3-0.8-5.1c0-2,0.3-3.7,0.9-5.2c0.6-1.5,1.4-2.6,2.5-3.4c1.1-0.8,2.3-1.2,3.6-1.2c1.5,0,2.8,0.5,3.8,1.5
		s1.7,2.3,2.1,4.1l-2,0.6c-0.3-1.4-0.9-2.4-1.5-3c-0.7-0.6-1.5-1-2.5-1c-1.2,0-2.1,0.4-2.9,1.1c-0.8,0.7-1.3,1.7-1.6,2.8
		c-0.3,1.2-0.5,2.4-0.5,3.7c0,1.6,0.2,3,0.6,4.3c0.4,1.2,0.9,2.1,1.7,2.7c0.8,0.6,1.6,0.9,2.5,0.9c1.1,0,2-0.4,2.8-1.2
		C53.6,56.6,54.1,55.4,54.4,53.8z" />
	<path d="M58.8,60.5V41.4H64c1.2,0,2.1,0.1,2.7,0.3c0.9,0.3,1.6,0.7,2.2,1.4c0.8,0.9,1.4,1.9,1.8,3.3c0.4,1.3,0.6,2.8,0.6,4.5
		c0,1.5-0.1,2.7-0.4,3.9s-0.6,2-1,2.8c-0.4,0.7-0.9,1.3-1.4,1.7c-0.5,0.4-1.1,0.7-1.8,1c-0.7,0.2-1.5,0.3-2.4,0.3H58.8z M60.8,58.3
		H64c1,0,1.8-0.1,2.3-0.4s1-0.6,1.3-1c0.5-0.6,0.8-1.4,1.1-2.4c0.3-1,0.4-2.2,0.4-3.7c0-2-0.3-3.5-0.8-4.6c-0.5-1.1-1.1-1.8-1.9-2.2
		c-0.5-0.3-1.4-0.4-2.6-0.4h-3.1V58.3z" />
</svg>