<?xml version="1.0" encoding="utf-8"?>
<!-- Generator: Adobe Illustrator 26.0.3, SVG Export Plug-In . SVG Version: 6.00 Build 0)  -->
<svg version="1.1" id="Layer_1" xmlns="http://www.w3.org/2000/svg" xmlns:xlink="http://www.w3.org/1999/xlink" x="0px" y="0px"
	 viewBox="0 0 100 100" style="enable-background:new 0 0 100 100;" xml:space="preserve">
<style type="text/css">
	.st0{fill:none;stroke:#000000;stroke-width:3;stroke-linecap:square;}
	.st1{fill:none;stroke:#000000;stroke-width:2;}
	.st2{font-family:'ArialMT';}
	.st3{font-size:28px;}
</style>
<path class="st0" d="M28.3,11.5h43.5v77H28.3V11.5z"/>
<line class="st1" x1="27.1" y1="24" x2="11.1" y2="24"/>
<line class="st1" x1="27.1" y1="76.7" x2="11.1" y2="76.7"/>
<line class="st1" x1="27.1" y1="59.2" x2="11.1" y2="59.2"/>
<line class="st1" x1="27.1" y1="41.6" x2="11.1" y2="41.6"/>
<line class="st1" x1="71.7" y1="76.7" x2="87.7" y2="76.7"/>
<line class="st1" x1="71.7" y1="24" x2="87.7" y2="24"/>
<line class="st1" x1="71.7" y1="32.8" x2="87.7" y2="32.8"/>
<line class="st1" x1="71.7" y1="41.6" x2="87.7" y2="41.6"/>
<line class="st1" x1="71.7" y1="50.4" x2="87.7" y2="50.4"/>
<line class="st1" x1="71.7" y1="59.2" x2="87.7" y2="59.2"/>
<line class="st1" x1="71.7" y1="68" x2="87.7" y2="68"/>
<text id="text25" transform="matrix(1 0 0 1 33.7255 59.7425)" class="st2 st3">7</text>
<text transform="matrix(1 0 0 1 50.2666 59.4349)" class="st2 st3">s</text>
<text transform="matrix(1 0 0 1 61.9688 59.7424)" class="st2 st3">.</text>
</svg>
