<?xml version="1.0" encoding="utf-8"?>
<!-- Generator: Adobe Illustrator 26.0.3, SVG Export Plug-In . SVG Version: 6.00 Build 0)  -->
<svg version="1.1" id="Layer_1" xmlns="http://www.w3.org/2000/svg" xmlns:xlink="http://www.w3.org/1999/xlink" x="0px" y="0px" viewBox="0 0 100 100" style="enable-background:new 0 0 100 100;" xml:space="preserve" fill="currentColor">
	<path d="M87.7,25v-2H73.3V10H26.8v13H11.1v2h15.7v15.6H11.1v2h15.7v15.6H11.1v2h15.7v15.5H11.1v2h15.7V90h46.5V77.7h14.4v-2H73.3V69
	h14.4v-2H73.3v-6.8h14.4v-2H73.3v-6.8h14.4v-2H73.3v-6.8h14.4v-2H73.3v-6.8h14.4v-2H73.3V25H87.7z M70.3,87H29.8V13h40.5V87z" />
	<path d="M35.1,42.3V40h13v1.9c-1.3,1.4-2.5,3.2-3.8,5.4c-1.3,2.3-2.2,4.6-2.9,6.9c-0.5,1.7-0.8,3.5-0.9,5.5h-2.5
		c0-1.6,0.3-3.5,0.9-5.7c0.6-2.2,1.4-4.4,2.5-6.5s2.3-3.8,3.5-5.2H35.1z" />
	<path d="M51.1,55.1l2.4-0.4c0.1,1,0.5,1.7,1.1,2.2c0.6,0.5,1.5,0.8,2.6,0.8c1.1,0,2-0.2,2.5-0.7s0.8-1,0.8-1.6c0-0.6-0.2-1-0.7-1.3
		c-0.3-0.2-1.2-0.5-2.5-0.8c-1.8-0.5-3.1-0.8-3.8-1.2s-1.2-0.8-1.6-1.4c-0.4-0.6-0.5-1.2-0.5-1.9c0-0.6,0.1-1.2,0.4-1.8
		c0.3-0.6,0.7-1,1.2-1.4c0.4-0.3,0.9-0.5,1.6-0.7c0.7-0.2,1.4-0.3,2.1-0.3c1.1,0,2.1,0.2,3,0.5s1.5,0.8,1.9,1.3s0.7,1.3,0.8,2.2
		L60.2,49c-0.1-0.7-0.4-1.3-1-1.8c-0.5-0.4-1.3-0.6-2.2-0.6c-1.1,0-1.9,0.2-2.4,0.6s-0.7,0.8-0.7,1.3c0,0.3,0.1,0.6,0.3,0.9
		c0.2,0.3,0.5,0.5,0.9,0.7c0.2,0.1,1,0.3,2.2,0.6c1.7,0.5,3,0.8,3.6,1.1c0.7,0.3,1.2,0.7,1.6,1.3s0.6,1.3,0.6,2.1
		c0,0.8-0.2,1.6-0.7,2.3s-1.2,1.3-2.1,1.7s-1.9,0.6-3.1,0.6c-1.9,0-3.3-0.4-4.3-1.2C52,57.8,51.4,56.6,51.1,55.1z" />
	<path d="M64.5,59.7v-2.8h2.8v2.8H64.5z" />
</svg>