<?xml version="1.0" encoding="utf-8"?>
<!-- Generator: Adobe Illustrator 26.0.3, SVG Export Plug-In . SVG Version: 6.00 Build 0)  -->
<svg version="1.1" id="Calque_1" xmlns="http://www.w3.org/2000/svg" xmlns:xlink="http://www.w3.org/1999/xlink" x="0px" y="0px"
	 viewBox="0 0 100 100" style="enable-background:new 0 0 100 100;" xml:space="preserve" fill="currentColor">
<path d="M80,25v-2H65V4.4l-17,9.9V1h-2v14.4l-15,8.7V43H16v2h15v9H16v2h15v19.9l34,18.6V78h15v-2H65v-9h15v-2H65V36h15v-2H65v-9H80z
	 M62,9.6v13.5c-7.3,0.8-11.3,5.7-15.2,10.5c-3.6,4.4-7,8.6-12.8,9.2v-17L62,9.6z M62,25.1v9c-6.4,0.7-9.8,5.3-13.2,9.7
	c-3.8,5-7.3,9.7-14.8,10.2v-9.1c6.7-0.5,10.6-5.3,14.3-9.9C52.1,30.3,55.7,25.9,62,25.1z M34,74.1V56c8.5-0.5,12.7-6,16.4-10.9
	c3.2-4.2,6.2-8.2,11.6-8.9v53.3L34,74.1z"/>
</svg>
