<?xml version="1.0" encoding="utf-8"?>
<!-- Generator: Adobe Illustrator 26.0.3, SVG Export Plug-In . SVG Version: 6.00 Build 0)  -->
<svg version="1.1" id="Layer_1" xmlns="http://www.w3.org/2000/svg" xmlns:xlink="http://www.w3.org/1999/xlink" x="0px" y="0px" viewBox="0 0 1792 1792" style="enable-background:new 0 0 1792 1792;" xml:space="preserve" fill="currentColor">
	<path fill="#8888ff" fill-opacity="1" d="M1041.4,1366.5c-109.6,0-186.4-38.4-230.5-115.1c-44.1-76.7-66.2-186.1-66.2-328.1c0-142,22-251.6,66.2-328.7
		c44.1-77.1,120.9-115.7,230.5-115.7c109.6,0,186.5,38.6,230.8,115.7c43.9,77.1,65.9,186.7,65.9,328.7c0,142-22.1,251.4-66.2,328.1
		C1227.8,1328.2,1150.9,1366.5,1041.4,1366.5z M1140.4,1149.9c15.4-52.2,23.1-127.8,23.1-226.7c0-103.6-7.8-180.4-23.4-230.2
		c-15.6-49.8-48.6-74.8-98.8-74.8c-50.2,0-83.5,24.9-99.7,74.8c-16.2,49.8-24.3,126.6-24.3,230.2c0,98.9,8.1,174.5,24.3,227
		c16.2,52.4,49.4,78.6,99.7,78.6C1091.6,1228.9,1124.6,1202.6,1140.4,1149.9z" />
	<path d="M346,57.9v62.3H-2.7v120H346v90.3H-2.7v120H346v90.4H-2.7v120H346v90.3H-2.7v120H346v90.4H-2.7v120H346v90.2H-2.7v120H346
	v90.4H-5.2v120H346v90.3H-2.7v120H346v44.5h1371.2V57.9H346z M1587.2,1627.1H476V187.9h1111.2V1627.1z" />
</svg>