<?xml version="1.0" encoding="utf-8"?>
<!-- Generator: Adobe Illustrator 26.0.3, SVG Export Plug-In . SVG Version: 6.00 Build 0)  -->
<svg version="1.1" id="Layer_1" xmlns="http://www.w3.org/2000/svg" xmlns:xlink="http://www.w3.org/1999/xlink" x="0px" y="0px"
	 viewBox="0 0 1792 1792" style="enable-background:new 0 0 1792 1792;" xml:space="preserve" fill="currentColor">
<path fill="#8888ff" fill-opacity="1" d="M1041.4,1259.6c-83.2,0-141.6-29.1-175-87.5c-33.5-58.3-50.2-141.3-50.2-249.1s16.7-191,50.2-249.5
	c33.5-58.5,91.9-87.9,175-87.9s141.6,29.3,175.2,87.9c33.3,58.5,50,141.7,50,249.5c0,107.8-16.7,190.8-50.2,249.1
	C1182.8,1230.4,1124.6,1259.6,1041.4,1259.6z M1116.6,1095.2c11.8-39.6,17.6-97,17.6-172c0-78.7-6-137-17.8-174.8
	c-11.9-37.8-36.8-56.7-75-56.7c-38.2,0-63.4,19-75.7,56.7c-12.3,37.8-18.4,96-18.4,174.8c0,75.1,6.1,132.6,18.4,172.3
	c12.3,39.9,37.5,59.6,75.7,59.6C1079.5,1155.2,1104.5,1135.1,1116.6,1095.2z"/>
<path d="M414.2,118v167.5H0v120h414.2v253.9H0v120h414.2v243.2H0v120h414.2v251.7H0v120h414.2V1697H1649V118H414.2z M1469,1517
	H594.2V298H1469V1517z"/>
</svg>
