<?xml version="1.0" encoding="utf-8"?>
<!-- Generator: Adobe Illustrator 26.0.3, SVG Export Plug-In . SVG Version: 6.00 Build 0)  -->
<svg version="1.1" id="Layer_1" xmlns="http://www.w3.org/2000/svg" xmlns:xlink="http://www.w3.org/1999/xlink" x="0px" y="0px"
	 viewBox="0 0 1792 1792" style="enable-background:new 0 0 1792 1792;" xml:space="preserve" fill="currentColor">
<path d="M370.3,38.4v248.2H2.5v95h367.8v96.6H-0.6v95h370.9v85.9H2.5v95h367.8v92H2.1v95h368.2v93.1H2.5v95h367.8v92.8H2.5v95h367.8
	v99.5H0.5v95h369.8v245.3h1289.9V38.4H370.3z M1540.2,1636.8H490.3V158.4h1049.9V1636.8z"/>
	<g fill="#00ff00" fill-opacity="0.65" stroke="#000000" stroke-width="10">
<polygon points="760.4,334.1 826,268.5 1206.9,268.5 1275.1,336.7 1212.3,399.6 824.5,399.6 "/>
<polygon points="760.4,893.6 826,828.1 1206.9,828.1 1275.1,896.3 1212.3,959.1 824.5,959.1 "/>
<polygon points="760.4,1446 826,1380.4 1206.9,1380.4 1275.1,1448.6 1212.3,1511.5 824.5,1511.5 "/>
<polygon points="735.6,1416.4 670,1350.8 670,993.8 738.2,925.6 801.1,988.5 801.1,1352.3 "/>
<polygon points="735.6,864.3 670,798.8 670,441.8 738.2,373.6 801.1,436.5 801.1,800.2 "/>
<polygon points="1294.7,1416.4 1229.1,1350.8 1229.1,993.8 1297.3,925.6 1360.2,988.5 1360.2,1352.3 "/>
<polygon points="1294.7,864.3 1229.1,798.8 1229.1,441.8 1297.3,373.6 1360.2,436.5 1360.2,800.2 "/>
	</g>
</svg>
