<?xml version="1.0" encoding="utf-8"?>
<!-- Generator: Adobe Illustrator 26.0.3, SVG Export Plug-In . SVG Version: 6.00 Build 0)  -->
<svg version="1.1" id="Layer_1" xmlns="http://www.w3.org/2000/svg" xmlns:xlink="http://www.w3.org/1999/xlink" x="0px" y="0px" viewBox="0 0 100 100" style="enable-background:new 0 0 100 100;" xml:space="preserve" fill="currentColor">
	<path d="M95,31v-2H80V10H20v19H5v2h15v38H5v2h15v19h60V71h15v-2H80V31H95z M23,66.9l7.1,3.1L23,73.1V66.9z M77,87H23V75.3L35.1,70
		L23,64.7V13h54V87z" />
	<rect x="61.9" y="60.2" width="11.9" height="1.5" />
	<path d="M30.1,36.4V25h-4.2v-1.5h10.2V25h-4.3v11.4H30.1z" />
	<path d="M72,35.3c0.8,0.5,1.5,0.9,2.2,1.2l-0.5,1.2c-0.9-0.3-1.8-0.9-2.8-1.6c-1,0.5-2,0.8-3.2,0.8c-1.2,0-2.2-0.3-3.2-0.8
		s-1.7-1.4-2.2-2.4s-0.8-2.2-0.8-3.4c0-1.3,0.3-2.4,0.8-3.5s1.2-1.8,2.2-2.4s2-0.8,3.2-0.8c1.2,0,2.3,0.3,3.2,0.8
		c1,0.6,1.7,1.4,2.2,2.4c0.5,1,0.8,2.2,0.8,3.4c0,1.1-0.2,2-0.5,2.9S72.7,34.6,72,35.3z M68.3,33.1c1,0.3,1.8,0.7,2.4,1.2
		c1-0.9,1.5-2.3,1.5-4.1c0-1-0.2-2-0.5-2.7s-0.9-1.4-1.6-1.8c-0.7-0.4-1.4-0.6-2.3-0.6c-1.3,0-2.3,0.4-3.2,1.3
		c-0.8,0.9-1.3,2.2-1.3,3.9c0,1.7,0.4,3,1.2,3.9s1.9,1.3,3.2,1.3c0.6,0,1.2-0.1,1.7-0.3c-0.5-0.3-1.1-0.6-1.7-0.7L68.3,33.1z" />
	<path d="M72,75.3c0.8,0.5,1.5,0.9,2.2,1.2l-0.5,1.2c-0.9-0.3-1.8-0.9-2.8-1.6c-1,0.5-2,0.8-3.2,0.8c-1.2,0-2.2-0.3-3.2-0.8
		s-1.7-1.4-2.2-2.4s-0.8-2.2-0.8-3.4c0-1.3,0.3-2.4,0.8-3.5s1.2-1.8,2.2-2.4s2-0.8,3.2-0.8c1.2,0,2.3,0.3,3.2,0.8
		c1,0.6,1.7,1.4,2.2,2.4c0.5,1,0.8,2.2,0.8,3.4c0,1.1-0.2,2-0.5,2.9S72.6,74.6,72,75.3z M68.2,73.1c1,0.3,1.8,0.7,2.4,1.2
		c1-0.9,1.5-2.3,1.5-4.1c0-1-0.2-2-0.5-2.7s-0.9-1.4-1.6-1.8c-0.7-0.4-1.4-0.6-2.3-0.6c-1.3,0-2.3,0.4-3.2,1.3
		c-0.8,0.9-1.3,2.2-1.3,3.9c0,1.7,0.4,3,1.2,3.9s1.9,1.3,3.2,1.3c0.6,0,1.2-0.1,1.7-0.3c-0.5-0.3-1.1-0.6-1.7-0.7L68.2,73.1z" />
</svg>