<?xml version="1.0" encoding="utf-8"?>
<!-- Generator: Adobe Illustrator 26.0.3, SVG Export Plug-In . SVG Version: 6.00 Build 0)  -->
<svg version="1.1" id="Layer_1" xmlns="http://www.w3.org/2000/svg" xmlns:xlink="http://www.w3.org/1999/xlink" x="0px" y="0px" viewBox="0 0 100 100" style="enable-background:new 0 0 100 100;" xml:space="preserve" fill="currentColor">
	<path d="M95,31v-2H80V10H20v19H5v2h15v38H5v2h15v19h60V71h15v-2H80V31H95z M23,66.9l7.1,3.1L23,73.1V66.9z M77,87H23V75.3L35.1,70
	L23,64.7V13h54V87z" />
	<rect x="62.4" y="60" width="11.9" height="1.5" />
	<path d="M27.3,36.3V23.4h4.4c1,0,1.8,0.1,2.3,0.2c0.7,0.2,1.4,0.5,1.9,0.9c0.7,0.6,1.2,1.3,1.5,2.2c0.3,0.9,0.5,1.9,0.5,3.1
		c0,1-0.1,1.8-0.3,2.6s-0.5,1.4-0.9,1.9c-0.4,0.5-0.7,0.9-1.2,1.2s-0.9,0.5-1.5,0.6s-1.3,0.2-2.1,0.2H27.3z M29,34.8h2.8
		c0.8,0,1.5-0.1,2-0.2s0.9-0.4,1.2-0.7c0.4-0.4,0.7-0.9,0.9-1.6c0.2-0.7,0.3-1.5,0.3-2.5c0-1.3-0.2-2.4-0.7-3.1
		c-0.4-0.7-1-1.2-1.6-1.5c-0.5-0.2-1.2-0.3-2.2-0.3H29V34.8z" />
	<path d="M72.6,35.1c0.8,0.5,1.5,0.9,2.2,1.2l-0.5,1.2c-0.9-0.3-1.8-0.9-2.8-1.6c-1,0.5-2,0.8-3.2,0.8c-1.2,0-2.2-0.3-3.2-0.8
		s-1.7-1.4-2.2-2.4s-0.8-2.2-0.8-3.4c0-1.3,0.3-2.4,0.8-3.5s1.2-1.8,2.2-2.4s2-0.8,3.2-0.8c1.2,0,2.3,0.3,3.2,0.8
		c1,0.6,1.7,1.4,2.2,2.4c0.5,1,0.8,2.2,0.8,3.4c0,1.1-0.2,2-0.5,2.9S73.2,34.5,72.6,35.1z M68.8,33c1,0.3,1.8,0.7,2.4,1.2
		c1-0.9,1.5-2.3,1.5-4.1c0-1-0.2-2-0.5-2.7s-0.9-1.4-1.6-1.8c-0.7-0.4-1.4-0.6-2.3-0.6c-1.3,0-2.3,0.4-3.2,1.3
		c-0.8,0.9-1.3,2.2-1.3,3.9c0,1.7,0.4,3,1.2,3.9s1.9,1.3,3.2,1.3c0.6,0,1.2-0.1,1.7-0.3c-0.5-0.3-1.1-0.6-1.7-0.7L68.8,33z" />
	<path d="M72.5,75.1c0.8,0.5,1.5,0.9,2.2,1.2l-0.5,1.2c-0.9-0.3-1.8-0.9-2.8-1.6c-1,0.5-2,0.8-3.2,0.8c-1.2,0-2.2-0.3-3.2-0.8
		s-1.7-1.4-2.2-2.4s-0.8-2.2-0.8-3.4c0-1.3,0.3-2.4,0.8-3.5s1.2-1.8,2.2-2.4s2-0.8,3.2-0.8c1.2,0,2.3,0.3,3.2,0.8
		c1,0.6,1.7,1.4,2.2,2.4c0.5,1,0.8,2.2,0.8,3.4c0,1.1-0.2,2-0.5,2.9S73.1,74.5,72.5,75.1z M68.7,73c1,0.3,1.8,0.7,2.4,1.2
		c1-0.9,1.5-2.3,1.5-4.1c0-1-0.2-2-0.5-2.7s-0.9-1.4-1.6-1.8c-0.7-0.4-1.4-0.6-2.3-0.6c-1.3,0-2.3,0.4-3.2,1.3
		c-0.8,0.9-1.3,2.2-1.3,3.9c0,1.7,0.4,3,1.2,3.9s1.9,1.3,3.2,1.3c0.6,0,1.2-0.1,1.7-0.3c-0.5-0.3-1.1-0.6-1.7-0.7L68.7,73z" />
</svg>