<?xml version="1.0" encoding="utf-8"?>
<!-- Generator: Adobe Illustrator 26.0.3, SVG Export Plug-In . SVG Version: 6.00 Build 0)  -->
<svg version="1.1" id="Layer_1" xmlns="http://www.w3.org/2000/svg" xmlns:xlink="http://www.w3.org/1999/xlink" x="0px" y="0px" viewBox="0 0 100 100" style="enable-background:new 0 0 100 100;" xml:space="preserve" fill="currentColor">
	<path d="M95,31v-2H80V10H20v19H5v2h15v18H5v2h15v18H5v2h15v19h60V71h15v-2H80V31H95z M23,46.9l7.1,3.1L23,53.1V46.9z M77,87H23V55.3
	L35.1,50L23,44.7V13h54V87z" />
	<rect x="62.4" y="60.2" width="11.9" height="1.5" />
	<path d="M26.5,32.8l1.5-0.2c0,1,0.2,1.7,0.6,2s0.8,0.5,1.4,0.5c0.4,0,0.8-0.1,1.1-0.3c0.3-0.2,0.5-0.5,0.6-0.8s0.2-0.9,0.2-1.6
		v-8.9h1.7v8.8c0,1.1-0.1,1.9-0.4,2.5s-0.7,1-1.2,1.4s-1.2,0.5-2,0.5c-1.1,0-2-0.3-2.6-1S26.4,34.1,26.5,32.8z" />
	<path d="M27,76.7V63.8h1.7v6.4l6.4-6.4h2.3L32,69l5.6,7.7h-2.2l-4.6-6.5l-2.1,2.1v4.5H27z" />
	<path d="M72.6,35.3c0.8,0.5,1.5,0.9,2.2,1.2l-0.5,1.2c-0.9-0.3-1.8-0.9-2.8-1.6c-1,0.5-2,0.8-3.2,0.8c-1.2,0-2.2-0.3-3.2-0.8
		s-1.7-1.4-2.2-2.4s-0.8-2.2-0.8-3.4c0-1.3,0.3-2.4,0.8-3.5s1.2-1.8,2.2-2.4s2-0.8,3.2-0.8c1.2,0,2.3,0.3,3.2,0.8
		c1,0.6,1.7,1.4,2.2,2.4c0.5,1,0.8,2.2,0.8,3.4c0,1.1-0.2,2-0.5,2.9S73.2,34.7,72.6,35.3z M68.8,33.1c1,0.3,1.8,0.7,2.4,1.2
		c1-0.9,1.5-2.3,1.5-4.1c0-1-0.2-2-0.5-2.7s-0.9-1.4-1.6-1.8c-0.7-0.4-1.4-0.6-2.3-0.6c-1.3,0-2.3,0.4-3.2,1.3
		c-0.8,0.9-1.3,2.2-1.3,3.9c0,1.7,0.4,3,1.2,3.9s1.9,1.3,3.2,1.3c0.6,0,1.2-0.1,1.7-0.3c-0.5-0.3-1.1-0.6-1.7-0.7L68.8,33.1z" />
	<path d="M72.5,75.3c0.8,0.5,1.5,0.9,2.2,1.2l-0.5,1.2c-0.9-0.3-1.8-0.9-2.8-1.6c-1,0.5-2,0.8-3.2,0.8c-1.2,0-2.2-0.3-3.2-0.8
		s-1.7-1.4-2.2-2.4s-0.8-2.2-0.8-3.4c0-1.3,0.3-2.4,0.8-3.5s1.2-1.8,2.2-2.4s2-0.8,3.2-0.8c1.2,0,2.3,0.3,3.2,0.8
		c1,0.6,1.7,1.4,2.2,2.4c0.5,1,0.8,2.2,0.8,3.4c0,1.1-0.2,2-0.5,2.9S73.1,74.7,72.5,75.3z M68.7,73.1c1,0.3,1.8,0.7,2.4,1.2
		c1-0.9,1.5-2.3,1.5-4.1c0-1-0.2-2-0.5-2.7s-0.9-1.4-1.6-1.8c-0.7-0.4-1.4-0.6-2.3-0.6c-1.3,0-2.3,0.4-3.2,1.3
		c-0.8,0.9-1.3,2.2-1.3,3.9c0,1.7,0.4,3,1.2,3.9s1.9,1.3,3.2,1.3c0.6,0,1.2-0.1,1.7-0.3c-0.5-0.3-1.1-0.6-1.7-0.7L68.7,73.1z" />
</svg>