<?xml version="1.0" encoding="utf-8"?>
<!-- Generator: Adobe Illustrator 26.0.3, SVG Export Plug-In . SVG Version: 6.00 Build 0)  -->
<svg version="1.1" id="Layer_1" xmlns="http://www.w3.org/2000/svg" xmlns:xlink="http://www.w3.org/1999/xlink" x="0px" y="0px"
	 viewBox="0 0 100 100" style="enable-background:new 0 0 100 100;" xml:space="preserve">
<style type="text/css">
	.st0{fill:none;stroke:#000000;stroke-width:3;stroke-linecap:square;}
	.st1{fill:none;stroke:#000000;stroke-width:2;}
</style>
<path class="st0" d="M29.9,2.6h41.8v93.5H29.9V2.6z"/>
<line class="st1" x1="29.2" y1="6" x2="13.2" y2="6"/>
<line class="st1" x1="29.2" y1="38.4" x2="13.2" y2="38.4"/>
<line class="st1" x1="29.2" y1="27.3" x2="13.2" y2="27.3"/>
<line class="st1" x1="29.2" y1="16.1" x2="13.2" y2="16.1"/>
<line class="st1" x1="88.4" y1="33.2" x2="72.4" y2="33.2"/>
<line class="st1" x1="88.4" y1="65.6" x2="72.4" y2="65.6"/>
<line class="st1" x1="88.4" y1="54.4" x2="72.4" y2="54.4"/>
<line class="st1" x1="88.4" y1="43.2" x2="72.4" y2="43.2"/>
<line class="st1" x1="29.2" y1="60.2" x2="13.2" y2="60.2"/>
<line class="st1" x1="29.2" y1="92.6" x2="13.2" y2="92.6"/>
<line class="st1" x1="29.2" y1="81.4" x2="13.2" y2="81.4"/>
<line class="st1" x1="29.2" y1="70.3" x2="13.2" y2="70.3"/>
<path d="M38.7,35.5v25.8h13.2c7.3,0,12.9-5.8,12.9-12.9s-5.6-12.9-12.9-12.9H38.7z M40.5,37.4h11.4c6.3,0,10.8,4.9,10.8,11.1
	s-4.8,11.1-11.1,11.1H40.5C40.5,59.5,40.5,37.4,40.5,37.4z"/>
</svg>
