<?xml version="1.0" encoding="UTF-8" standalone="no"?>
<svg
   xmlns:dc="http://purl.org/dc/elements/1.1/"
   xmlns:cc="http://creativecommons.org/ns#"
   xmlns:rdf="http://www.w3.org/1999/02/22-rdf-syntax-ns#"
   xmlns:svg="http://www.w3.org/2000/svg"
   xmlns="http://www.w3.org/2000/svg"
   xmlns:sodipodi="http://sodipodi.sourceforge.net/DTD/sodipodi-0.dtd"
   xmlns:inkscape="http://www.inkscape.org/namespaces/inkscape"
   width="100"
   height="50"
   version="1.1"
   id="svg839"
   sodipodi:docname="IMPLY.svg"
   inkscape:version="1.0.1 (c497b03c, 2020-09-10)">
  <metadata
     id="metadata845">
    <rdf:RDF>
      <cc:Work
         rdf:about="">
        <dc:format>image/svg+xml</dc:format>
        <dc:type
           rdf:resource="http://purl.org/dc/dcmitype/StillImage" />
      </cc:Work>
    </rdf:RDF>
  </metadata>
  <defs
     id="defs843" />
  <sodipodi:namedview
     pagecolor="#ffffff"
     bordercolor="#666666"
     borderopacity="1"
     objecttolerance="10"
     gridtolerance="10"
     guidetolerance="10"
     inkscape:pageopacity="0"
     inkscape:pageshadow="2"
     inkscape:window-width="1920"
     inkscape:window-height="1027"
     id="namedview841"
     showgrid="false"
     inkscape:zoom="7.3"
     inkscape:cx="50"
     inkscape:cy="25"
     inkscape:window-x="0"
     inkscape:window-y="145"
     inkscape:window-maximized="0"
     inkscape:current-layer="svg839" />
  <path
     fill="none"
     stroke="#000000"
     stroke-width="2"
     d="M 71.25,25 H 95 M 21.958904,15 H 5 M 32,35 H 5"
     id="path833"
     sodipodi:nodetypes="cccccc" />
  <path
     fill-rule="evenodd"
     d="M24.09375 5l2 2.4375S31.75 14.437549 31.75 25s-5.65625 17.5625-5.65625 17.5625l-2 2.4375H41.25c2.408076.000001 7.689699.024514 13.625-2.40625s12.536536-7.343266 17.6875-16.875L71.25 25l1.3125-.71875C62.259387 5.21559 46.006574 5 41.25 5H24.09375zm5.875 3H41.25c4.684173 0 18.28685-.130207 27.96875 17C64.451964 33.429075 58.697469 37.68391 53.5 39.8125 48.139339 42.007924 43.658075 42.000001 41.25 42H30c1.873588-3.108434 4.75-9.04935 4.75-17 0-7.973354-2.908531-13.900185-4.78125-17z"
     id="path835" />
  <path
     fill="none"
     stroke="#000000"
     stroke-width="3"
     d="m 29,14.863014 a 4,4 0 1 1 -8,0 4,4 0 1 1 8,0 z"
     style="marker:none"
     id="path837" />
</svg>
