<?xml version="1.0" encoding="utf-8"?>
<!-- Generator: Adobe Illustrator 26.0.3, SVG Export Plug-In . SVG Version: 6.00 Build 0)  -->
<svg version="1.1" id="Layer_1" xmlns="http://www.w3.org/2000/svg" xmlns:xlink="http://www.w3.org/1999/xlink" x="0px" y="0px"
	 viewBox="0 0 100 50" style="enable-background:new 0 0 100 50;" xml:space="preserve" fill="currentColor">
<path d="M95,24H72.4C62.1,5.2,46,5,41.2,5H24.1l2,2.4c0,0,0.8,1,1.8,2.7C27,9.7,26.1,9.4,25,9.4c-2.7,0-5,2-5.4,4.6H5v2h14.6
	c0.5,2.5,2.7,4.4,5.4,4.4c2.6,0,4.8-1.9,5.4-4.3c0.8,2.5,1.4,5.6,1.4,9c0,3.4-0.6,6.4-1.4,9H5v2h24.7c-1.6,4.1-3.6,6.6-3.6,6.6
	l-2,2.4h17.2c2.4,0,7.7,0,13.6-2.4c5.9-2.4,12.4-7.3,17.5-16.6H95V24z M25,17.4c-1.4,0-2.5-1.1-2.5-2.5s1.1-2.5,2.5-2.5
	s2.5,1.1,2.5,2.5S26.4,17.4,25,17.4z M53.5,39.8C48.1,42,43.7,42,41.2,42H30c1.9-3.1,4.8-9,4.8-17c0-8-2.9-13.9-4.8-17h11.3
	c4.7,0,18.3-0.1,28,17C64.5,33.4,58.7,37.7,53.5,39.8z"/>
</svg>
