<?xml version="1.0" encoding="utf-8"?>
<!-- Generator: Adobe Illustrator 26.0.3, SVG Export Plug-In . SVG Version: 6.00 Build 0)  -->
<svg version="1.1" id="Layer_1" xmlns="http://www.w3.org/2000/svg" xmlns:xlink="http://www.w3.org/1999/xlink" x="0px" y="0px"
	 viewBox="0 0 32 24" style="enable-background:new 0 0 32 24;" xml:space="preserve" fill="currentColor">
<path d="M32,10.5h-3.6c-0.8-0.8-1.9-2-2.8-2.9c-0.7-0.8-1.1-1.2-1.3-1.4C21.4,2.5,16,1,11.7,3.6c-6.4,3.5-6.4,13.2,0,16.8
	c4.1,2.5,9.4,1.2,12.3-2.2c0.1-0.1,0.2-0.1,0.3-0.2c0,0,0,0,1.6-1.6c0.9-0.9,1.9-1.9,2.6-2.6H32V10.5z M14,17.9
	C8.8,15.7,8.8,8.2,14,6c4.1-1.8,9,1.4,9,5.9C23,16.5,18.1,19.8,14,17.9z"/>
</svg>
