<?xml version="1.0" encoding="utf-8"?>
<!-- Generator: Adobe Illustrator 26.0.3, SVG Export Plug-In . SVG Version: 6.00 Build 0)  -->
<svg version="1.1" id="Calque_1" xmlns="http://www.w3.org/2000/svg" xmlns:xlink="http://www.w3.org/1999/xlink" x="0px" y="0px"
	 viewBox="0 0 1792 1792" style="enable-background:new 0 0 1792 1792;" xml:space="preserve">
<style type="text/css">
	.st0{fill:none;}
	.st1{fill:none;stroke:#000000;stroke-width:120;}
	.st2{stroke:#000000;stroke-width:50;}
</style>
<path class="st0" d="M-1-1h582v402H-1V-1z"/>
<rect x="513" y="97.4" class="st1" width="763.3" height="1582.2"/>
<line class="st2" x1="513" y1="322" x2="1276.3" y2="322"/>
<line class="st2" x1="514.3" y1="133.2" x2="1277.7" y2="133.2"/>
<line class="st2" x1="485.7" y1="1643.9" x2="1249" y2="1643.9"/>
<line class="st2" x1="513" y1="510.9" x2="1276.3" y2="510.9"/>
<line class="st2" x1="513" y1="699.7" x2="1276.3" y2="699.7"/>
<line class="st2" x1="513" y1="888.6" x2="1276.3" y2="888.6"/>
<line class="st2" x1="513" y1="1077.4" x2="1276.3" y2="1077.4"/>
<line class="st2" x1="513" y1="1266.3" x2="1276.3" y2="1266.3"/>
<line class="st2" x1="513" y1="1455.1" x2="1276.3" y2="1455.1"/>
<line class="st2" x1="1304.2" y1="423.9" x2="1660.5" y2="423.9"/>
<line class="st2" x1="1304.8" y1="235" x2="1661.1" y2="235"/>
<line class="st2" x1="1304.2" y1="612.7" x2="1660.5" y2="612.7"/>
<line class="st2" x1="1304.2" y1="801.6" x2="1660.5" y2="801.6"/>
<line class="st2" x1="1304.2" y1="990.4" x2="1660.5" y2="990.4"/>
<line class="st2" x1="1304.2" y1="1179.3" x2="1660.5" y2="1179.3"/>
<line class="st2" x1="1304.2" y1="1368.1" x2="1660.5" y2="1368.1"/>
<line class="st2" x1="1304.2" y1="1557" x2="1660.5" y2="1557"/>
</svg>
