<?xml version="1.0" encoding="utf-8"?>
<!-- Generator: Adobe Illustrator 22.1.0, SVG Export Plug-In . SVG Version: 6.00 Build 0)  -->
<svg version="1.1" id="Calque_1" xmlns="http://www.w3.org/2000/svg" xmlns:xlink="http://www.w3.org/1999/xlink" x="0px" y="0px"
	 viewBox="0 0 1792 1792" style="enable-background:new 0 0 1792 1792;" xml:space="preserve">
<style type="text/css">
	.st0{fill:none;}
	.st1{stroke:#000000;stroke-width:5.449;}
	.st2{stroke:#000000;stroke-width:11.311;}
	.st3{stroke:#000000;stroke-width:12.878;}
</style>
<path class="st0" d="M-1-1h582v402H-1V-1z"/>
<g>
	<path class="st1" d="M1357.1,288.2h430.4v114.6h-430.4V288.2z M1357.1,662.1h430.4v114.6h-430.4V662.1z M1357.1,1397h430.4v114.6
		h-430.4V1397z M1357.1,1025.3h430.4v114.6h-430.4V1025.3z"/>
	<path class="st1" d="M575.5,521.2h609v68.7h-609V521.2z M592.5,846.6h609v63.7h-609V846.6z M590.1,1166.1h609v71.9h-609V1166.1z"/>
	<path class="st2" d="M420,111.7h939v174.9H420V111.7z M420,1511.5h939v174.9H420V1511.5z"/>
	<path class="st3" d="M1184.2,1686.4V111.7h174.9v1574.8H1184.2z M420.9,1686.4V111.7h174.9v1574.8H420.9z"/>
</g>
</svg>
