<?xml version="1.0" encoding="utf-8"?>
<!-- Generator: Adobe Illustrator 26.0.3, SVG Export Plug-In . SVG Version: 6.00 Build 0)  -->
<svg version="1.1" id="Layer_1" xmlns="http://www.w3.org/2000/svg" xmlns:xlink="http://www.w3.org/1999/xlink" x="0px" y="0px"
	 viewBox="0 0 1792 1792" style="enable-background:new 0 0 1792 1792;" xml:space="preserve">
<style type="text/css">
	.st0{fill:none;}
	.st1{fill:#0000F4;}
	.st2{font-family:'Helvetica-Bold';}
	.st3{font-size:491.38px;}
	.st4{stroke:#000000;stroke-width:7.086;}
	.st5{fill:none;stroke:#000000;stroke-width:134.334;stroke-linejoin:round;}
</style>
<path class="st0" d="M-1-1h582v402H-1V-1z"/>
<path d="M1272.4,664.6c0-49.7-9.7-97-29-142.2c-19.3-45.1-45.5-84.1-78.4-117.1s-72-59.1-117.1-78.4c-45.1-19.3-92.5-29-142.2-29
	s-97,9.7-142.2,29c-45.1,19.3-84.1,45.5-117.1,78.4c-32.9,32.9-59.1,72-78.4,117.1c-19.3,45.1-29,92.5-29,142.2
	c0,49.7,9.7,97,29,142.2c19.3,45.1,45.5,84.1,78.4,117.1c32.9,32.9,72,59.1,117.1,78.4c45.1,19.3,92.5,29,142.2,29
	c49.7,0,97-9.7,142.2-29c45.1-19.3,84.1-45.5,117.1-78.4s59.1-72,78.4-117.1C1262.7,761.6,1272.4,714.3,1272.4,664.6L1272.4,664.6z
	 M1455.7,664.6c0,99.8-24.6,191.8-73.8,276.1c-49.2,84.3-115.9,151-200.2,200.2c-84.3,49.2-176.3,73.8-276.1,73.8
	c-99.8,0-191.8-24.6-276.1-73.8s-151-115.9-200.2-200.2s-73.8-176.3-73.8-276.1s24.6-191.8,73.8-276.1s115.9-151,200.2-200.2
	s176.3-73.8,276.1-73.8c99.8,0,191.8,24.6,276.1,73.8c84.3,49.2,151,115.9,200.2,200.2C1431.1,472.8,1455.7,564.8,1455.7,664.6
	L1455.7,664.6z"/>
<text transform="matrix(1 0 0 1 624.735 1691.968)" class="st1 st2 st3">IN</text>
<path class="st4" d="M1326.4,582.9H1787v181h-460.6V582.9z"/>
<path class="st5" d="M1284.1,369.3l81,315.3l-69.8,273.6l282.5-284.7l0.3-0.3l-0.3-0.3L1285.5,369L1284.1,369.3z M1284.2,369.6
	l292,303.5l-121.2,40l50.5-51.3l-219.9-292.5L1284.2,369.6z"/>
</svg>
