<?xml version="1.0" encoding="utf-8"?>
<!-- Generator: Adobe Illustrator 26.0.3, SVG Export Plug-In . SVG Version: 6.00 Build 0)  -->
<svg version="1.1" id="Calque_1" xmlns="http://www.w3.org/2000/svg" xmlns:xlink="http://www.w3.org/1999/xlink" x="0px" y="0px" viewBox="0 0 1792 1792" style="enable-background:new 0 0 1792 1792;" xml:space="preserve" fill="currentColor">
	<path d="M1661.1,260v-50h-324.8V37.4H453v1702.2h883.3V1582h324.2v-50h-324.2v-138.9h324.2v-50h-324.2v-138.8h324.2v-50h-324.2
	v-138.9h324.2v-50h-324.2V826.6h324.2v-50h-324.2V637.7h324.2v-50h-324.2V448.9h324.2v-50h-324.2V260H1661.1z M573,1618.9v-138.8
	h643.3v138.8H573z M573,1430.1v-138.8h643.3v138.8H573z M573,1241.3v-138.9h643.3v138.9H573z M573,1052.4V913.6h643.3v138.8H573z
	 M573,863.6V724.7h643.3v138.9H573z M573,674.7V535.9h643.3v138.8H573z M573,485.9V347h643.3v138.9H573z M573,297V158.2h643.3V297
	H573z" />
</svg>