<?xml version="1.0" encoding="utf-8"?>
<!-- Generator: Adobe Illustrator 26.0.3, SVG Export Plug-In . SVG Version: 6.00 Build 0)  -->
<svg version="1.1" id="Layer_1" xmlns="http://www.w3.org/2000/svg" xmlns:xlink="http://www.w3.org/1999/xlink" x="0px" y="0px"
	 viewBox="0 0 100 60" style="enable-background:new 0 0 100 60;" xml:space="preserve" fill="currentColor">
	<path d="M7.6,44.1l14.4-15.2L13.4,14h4.4l3.9,6.8c1,1.8,1.6,2.8,1.8,3.1c0.4,0.7,0.7,1.5,1.2,2.4c1-1.4,2.6-3.2,4.7-5.4l6.6-7h5.2
		L26.7,29.5l8.2,14.5h-4.4l-4.9-8.8c-0.5-0.9-1-2-1.7-3.3c-0.7,1-1.6,2.1-2.7,3.2l-8.4,8.9H7.6z"/>
	<path d="M48.6,44.1l2.4-11.6L41.8,14h4.3l4.4,8.8c1,1.9,1.9,4,2.8,6.2c1-1.9,2.4-3.9,4.1-6.1l7.1-8.8h4.8L55,32.7l-2.4,11.3H48.6z"
		/>
	<path d="M65.9,44.1l0.4-3l15.1-18l3.1-3.8c0.6-0.8,1.2-1.5,1.8-2.1c-1.3,0.2-2.2,0.2-2.7,0.2l-1,0l-1.2,0l-1.2,0H70.2l0.7-3.4h20.7
		l-0.3,3.1L75.2,36.3c-2,2.4-3.2,3.8-3.8,4.5c0.6-0.1,1-0.1,1.2-0.1H89l-0.7,3.4H65.9z"/>
</svg>
