<?xml version="1.0" encoding="utf-8"?>
<!-- Generator: Adobe Illustrator 26.0.3, SVG Export Plug-In . SVG Version: 6.00 Build 0)  -->
<svg version="1.1" id="Layer_1" xmlns="http://www.w3.org/2000/svg" xmlns:xlink="http://www.w3.org/1999/xlink" x="0px" y="0px" viewBox="0 0 100 100" style="enable-background:new 0 0 100 100;" xml:space="preserve" fill="currentColor">
	<path d="M95,31v-2H80V10H20v19H5v2h15v38H5v2h15v19h60V71h15v-2H80V31H95z M77,87H23V13h54V87z" />
	<rect x="62" y="59.5" width="11.9" height="1.5" />
	<path d="M26.4,31.6l1.6-0.1c0.1,0.6,0.3,1.2,0.5,1.6c0.3,0.4,0.7,0.7,1.3,1c0.6,0.3,1.2,0.4,2,0.4c0.7,0,1.2-0.1,1.7-0.3
		s0.9-0.5,1.1-0.8s0.4-0.7,0.4-1.1c0-0.4-0.1-0.8-0.4-1.1s-0.6-0.6-1.2-0.8c-0.3-0.1-1.1-0.3-2.3-0.6s-2-0.6-2.5-0.8
		c-0.6-0.3-1.1-0.7-1.4-1.2s-0.5-1-0.5-1.6c0-0.7,0.2-1.3,0.6-1.8s0.9-1,1.6-1.3s1.5-0.4,2.4-0.4c1,0,1.8,0.2,2.5,0.5
		c0.7,0.3,1.3,0.8,1.7,1.4s0.6,1.3,0.6,2l-1.6,0.1c-0.1-0.8-0.4-1.4-0.9-1.8s-1.3-0.6-2.2-0.6c-1,0-1.8,0.2-2.3,0.6
		c-0.5,0.4-0.7,0.8-0.7,1.4c0,0.5,0.2,0.8,0.5,1.1c0.3,0.3,1.2,0.6,2.6,0.9c1.4,0.3,2.3,0.6,2.9,0.8c0.8,0.3,1.3,0.8,1.7,1.3
		s0.5,1.1,0.5,1.8c0,0.7-0.2,1.3-0.6,1.9c-0.4,0.6-1,1.1-1.7,1.4c-0.7,0.3-1.6,0.5-2.5,0.5c-1.2,0-2.1-0.2-2.9-0.5s-1.4-0.9-1.9-1.5
		C26.6,33.3,26.4,32.5,26.4,31.6z" />
	<path d="M26.7,76V63.1h5.7c1.1,0,2,0.1,2.6,0.3s1.1,0.6,1.4,1.2s0.5,1.2,0.5,1.9c0,0.9-0.3,1.7-0.9,2.3s-1.5,1-2.7,1.2
		c0.5,0.2,0.8,0.4,1,0.6c0.5,0.5,1,1,1.4,1.7L38,76h-2.1l-1.7-2.7c-0.5-0.8-0.9-1.4-1.2-1.8s-0.6-0.7-0.9-0.9s-0.5-0.3-0.8-0.3
		c-0.2,0-0.5-0.1-0.9-0.1h-2V76H26.7z M28.4,68.8H32c0.8,0,1.4-0.1,1.8-0.2s0.8-0.4,1-0.8s0.3-0.7,0.3-1.2c0-0.6-0.2-1.1-0.7-1.5
		s-1.1-0.6-2.1-0.6h-4.1V68.8z" />
	<path d="M72.2,34.6c0.8,0.5,1.5,0.9,2.2,1.2L73.9,37c-0.9-0.3-1.8-0.9-2.8-1.6c-1,0.5-2,0.8-3.2,0.8c-1.2,0-2.2-0.3-3.2-0.8
		S63.1,34,62.6,33s-0.8-2.2-0.8-3.4c0-1.3,0.3-2.4,0.8-3.5s1.2-1.8,2.2-2.4s2-0.8,3.2-0.8c1.2,0,2.3,0.3,3.2,0.8
		c1,0.6,1.7,1.4,2.2,2.4c0.5,1,0.8,2.2,0.8,3.4c0,1.1-0.2,2-0.5,2.9S72.8,34,72.2,34.6z M68.4,32.4c1,0.3,1.8,0.7,2.4,1.2
		c1-0.9,1.5-2.3,1.5-4.1c0-1-0.2-2-0.5-2.7S71,25.4,70.3,25c-0.7-0.4-1.4-0.6-2.3-0.6c-1.3,0-2.3,0.4-3.2,1.3
		c-0.8,0.9-1.3,2.2-1.3,3.9c0,1.7,0.4,3,1.2,3.9s1.9,1.3,3.2,1.3c0.6,0,1.2-0.1,1.7-0.3c-0.5-0.3-1.1-0.6-1.7-0.7L68.4,32.4z" />
	<path d="M72.1,74.6c0.8,0.5,1.5,0.9,2.2,1.2L73.8,77c-0.9-0.3-1.8-0.9-2.8-1.6c-1,0.5-2,0.8-3.2,0.8c-1.2,0-2.2-0.3-3.2-0.8
		S63,74,62.5,73s-0.8-2.2-0.8-3.4c0-1.3,0.3-2.4,0.8-3.5s1.2-1.8,2.2-2.4s2-0.8,3.2-0.8c1.2,0,2.3,0.3,3.2,0.8
		c1,0.6,1.7,1.4,2.2,2.4c0.5,1,0.8,2.2,0.8,3.4c0,1.1-0.2,2-0.5,2.9S72.7,74,72.1,74.6z M68.3,72.4c1,0.3,1.8,0.7,2.4,1.2
		c1-0.9,1.5-2.3,1.5-4.1c0-1-0.2-2-0.5-2.7s-0.9-1.4-1.6-1.8c-0.7-0.4-1.4-0.6-2.3-0.6c-1.3,0-2.3,0.4-3.2,1.3
		c-0.8,0.9-1.3,2.2-1.3,3.9c0,1.7,0.4,3,1.2,3.9s1.9,1.3,3.2,1.3c0.6,0,1.2-0.1,1.7-0.3c-0.5-0.3-1.1-0.6-1.7-0.7L68.3,72.4z" />
</svg>