<svg xmlns="http://www.w3.org/2000/svg" width="1792" height="1792"><path fill="none" d="M-1-1h582v402H-1z"/><g><path fill="currentColor" d="M1264.11 672.514q0-74.48-29.003-142.155-29.004-67.676-78.418-117.09t-117.09-78.418q-67.676-29.004-142.155-29.004-74.48 0-142.155 29.004-67.676 29.004-117.09 78.418t-78.418 117.09q-29.004 67.676-29.004 142.155 0 74.48 29.004 142.155 29.004 67.676 78.418 117.09t117.09 78.418q67.676 29.004 142.155 29.004 74.48 0 142.155-29.004 67.676-29.004 117.09-78.418t78.418-117.09q29.004-67.676 29.004-142.155zm183.334 0q0 149.674-73.763 276.074t-200.163 200.163q-126.4 73.763-276.074 73.763-149.675 0-276.074-73.763-126.4-73.763-200.163-200.163t-73.763-276.074q0-149.675 73.763-276.074 73.763-126.4 200.163-200.163t276.074-73.763q149.674 0 276.074 73.763t200.163 200.163q73.763 126.4 73.763 276.074z"/><text font-weight="bold" font-family="Georgia, Times, 'Times New Roman', serif" font-size="491.38" y="1690.528" x="322.654" stroke-width="0" stroke="#000" fill="#0000f4"><tspan style="-inkscape-font-specification:'sans-serif Bold'" font-weight="700" font-family="sans-serif">OUT</tspan></text><path stroke="#000" stroke-width="6.808" d="M3.404 568.815h429.01v179.392H3.404z"/></g></svg>