<svg xmlns="http://www.w3.org/2000/svg" width="1792" height="1792"><path fill="none" d="M-1-1h582v402H-1z"/><g><path fill="currentColor" d="M1272.363 664.606q0-74.479-29.004-142.155t-78.418-117.09q-49.414-49.414-117.09-78.418-67.676-29.004-142.155-29.004t-142.155 29.004q-67.675 29.004-117.09 78.418-49.414 49.414-78.418 117.09-29.003 67.676-29.003 142.155 0 74.48 29.003 142.155 29.004 67.676 78.418 117.09 49.415 49.414 117.09 78.418 67.676 29.004 142.155 29.004 74.48 0 142.155-29.004 67.676-29.004 117.09-78.418t78.418-117.09q29.004-67.676 29.004-142.155zm183.333 0q0 149.675-73.763 276.074-73.763 126.4-200.162 200.163-126.4 73.763-276.075 73.763-149.674 0-276.074-73.763T429.459 940.68q-73.763-126.4-73.763-276.074t73.763-276.074q73.763-126.4 200.163-200.163t276.074-73.763q149.675 0 276.075 73.763 126.4 73.763 200.162 200.163 73.763 126.4 73.763 276.074z"/><text font-weight="bold" font-family="Georgia, Times, 'Times New Roman', serif" font-size="491.38" y="1691.968" x="624.735" stroke-width="0" stroke="#000" fill="#0000f4"><tspan style="-inkscape-font-specification:'sans-serif Bold'" font-weight="700" font-family="sans-serif">IN</tspan></text><path stroke="#000" stroke-width="7.086" d="M1326.36 582.902h460.595v181.041H1326.36z"/></g></svg>