<?xml version="1.0" encoding="UTF-8" standalone="no"?>
<svg
   xmlns:dc="http://purl.org/dc/elements/1.1/"
   xmlns:cc="http://creativecommons.org/ns#"
   xmlns:rdf="http://www.w3.org/1999/02/22-rdf-syntax-ns#"
   xmlns:svg="http://www.w3.org/2000/svg"
   xmlns="http://www.w3.org/2000/svg"
   xmlns:sodipodi="http://sodipodi.sourceforge.net/DTD/sodipodi-0.dtd"
   xmlns:inkscape="http://www.inkscape.org/namespaces/inkscape"
   width="1792.0000000000002"
   height="1792.0000000000002"
   version="1.1"
   id="svg867"
   sodipodi:docname="LogicOutput.svg"
   inkscape:version="1.0.1 (c497b03c, 2020-09-10)"
   inkscape:export-filename="/Users/jpp/dev/Logic-Circuit-Simulator/simulator/img/LogicOutput.png"
   inkscape:export-xdpi="1.7142857"
   inkscape:export-ydpi="1.7142857">
  <defs
     id="defs871" />
  <sodipodi:namedview
     pagecolor="#ffffff"
     bordercolor="#666666"
     borderopacity="1"
     objecttolerance="10"
     gridtolerance="10"
     guidetolerance="10"
     inkscape:pageopacity="0"
     inkscape:pageshadow="2"
     inkscape:window-width="1920"
     inkscape:window-height="981"
     id="namedview869"
     showgrid="false"
     inkscape:snap-text-baseline="true"
     inkscape:zoom="0.36455797"
     inkscape:cx="811.29544"
     inkscape:cy="799.24405"
     inkscape:window-x="0"
     inkscape:window-y="25"
     inkscape:window-maximized="0"
     inkscape:current-layer="g865" />
  <metadata
     id="metadata3035">image/svg+xml<rdf:RDF>
  <cc:Work
     rdf:about="">
    <dc:format>image/svg+xml</dc:format>
    <dc:type
       rdf:resource="http://purl.org/dc/dcmitype/StillImage" />
  </cc:Work>
</rdf:RDF>
</metadata>
  <g
     id="g858">
    <title
       id="title855">background</title>
    <rect
       fill="none"
       id="canvas_background"
       height="402"
       width="582"
       y="-1"
       x="-1" />
  </g>
  <g
     id="g865">
    <title
       id="title860">Layer 1</title>
    <g
       id="g3027"
       transform="matrix(0.71614582,0,0,-0.71614591,342.78318,951.39557)"
       inkscape:export-xdpi="1.8159525"
       inkscape:export-ydpi="1.8159525">
      <path
         fill="currentColor"
         id="path3029"
         d="m 1286.5081,389.42007 q 0,104.00004 -40.5,198.50004 -40.5,94.5 -109.5,163.5 -69,69 -163.49998,109.5 -94.5,40.5 -198.5,40.5 -104,0 -198.5,-40.5 -94.50012,-40.5 -163.50012,-109.5 -69,-69 -109.5,-163.5 -40.49997,-94.5 -40.49997,-198.50004 0,-104 40.49997,-198.5 40.5,-94.499988 109.5,-163.499992 69,-69.000004 163.50012,-109.499996 94.5,-40.500002 198.5,-40.500002 104,0 198.5,40.500002 94.49998,40.499992 163.49998,109.499996 69,69.000004 109.5,163.499992 40.5,94.5 40.5,198.5 z m 256,0 q 0,-209 -103,-385.499994 -103,-176.500006 -279.5,-279.499976 -176.49998,-103.00003 -385.49998,-103.00003 -209,0 -385.50012,103.00004 Q 212.50803,-172.57993 109.50809,3.920076 6.508065,180.42007 6.508065,389.42007 q 0,209.00004 103.000025,385.50004 102.99994,176.5 279.49991,279.49979 176.50012,103 385.50012,103 209,0 385.49998,-103 176.5,-102.99979 279.5,-279.49979 103,-176.5 103,-385.50004 z" />
    </g>
    <text
       font-weight="bold"
       xml:space="preserve"
       text-anchor="start"
       font-family="Georgia, Times, 'Times New Roman', serif"
       font-size="491.38px"
       id="svg_2-9"
       y="1690.5284"
       x="322.6535"
       stroke-width="0"
       stroke="#000000"
       fill="#000000"
       style="fill:#0000f4;fill-opacity:1"
       inkscape:export-xdpi="1.8159525"
       inkscape:export-ydpi="1.8159525"><tspan
         style="font-style:normal;font-variant:normal;font-weight:bold;font-stretch:normal;font-family:sans-serif;-inkscape-font-specification:'sans-serif Bold';fill:#0000f4;fill-opacity:1;stroke-width:0"
         id="tspan852">OUT</tspan></text>
    <rect
       style="fill:#000000;fill-opacity:1;stroke:#000000;stroke-width:6.80779"
       id="rect1452"
       width="429.0098"
       height="179.39244"
       x="3.403893"
       y="568.81549"
       inkscape:export-xdpi="1.8159525"
       inkscape:export-ydpi="1.8159525" />
  </g>
</svg>
