<?xml version="1.0" encoding="utf-8"?>
<!-- Generator: Adobe Illustrator 26.0.3, SVG Export Plug-In . SVG Version: 6.00 Build 0)  -->
<svg version="1.1" id="Calque_1" xmlns="http://www.w3.org/2000/svg" xmlns:xlink="http://www.w3.org/1999/xlink" x="0px" y="0px"
	 viewBox="0 0 100 100" style="enable-background:new 0 0 100 100;" xml:space="preserve" fill="currentColor">
<path d="M83,44.9v-2H68V24.1l-15-8.7V1h-2v13.3L34,4.4V23H19v2h15v9H19v2h15v29H19v2h15v9H19v2h15v16.5l34-18.6V56h15v-2H68v-9.1H83
	z M37,25.1c6.5,0.7,10.1,5.1,13.9,9.8c3.7,4.6,7.5,9.3,14.1,9.9v9.1c-7.4-0.6-10.9-5.2-14.6-10.1c-3.4-4.5-6.9-9.1-13.4-9.7V25.1z
	 M65,25.9v16.9c-5.6-0.6-9-4.8-12.6-9.2c-3.9-4.9-8-9.9-15.4-10.6V9.6L65,25.9z M37,89.5V36.1c5.5,0.6,8.6,4.7,11.8,8.9
	c3.7,4.9,7.8,10.4,16.2,10.9v18.2L37,89.5z"/>
</svg>
