<?xml version="1.0" encoding="utf-8"?>
<!-- Generator: Adobe Illustrator 26.0.3, SVG Export Plug-In . SVG Version: 6.00 Build 0)  -->
<svg version="1.1" id="Calque_1" xmlns="http://www.w3.org/2000/svg" xmlns:xlink="http://www.w3.org/1999/xlink" x="0px" y="0px"
	 viewBox="0 0 100 50" style="enable-background:new 0 0 100 50;" xml:space="preserve" fill="currentColor">
<path d="M95,24H80.4c-0.5-2.6-2.7-4.5-5.4-4.5c-2,0-3.8,1.1-4.7,2.7C68.9,12.5,60.8,5,50.5,5H30v3.8H5v2h25v8H5v2h25v8H5v2h25v8H5v2
	h25V45h20.5c10.3,0,18.4-7.5,19.8-17.2c1,1.6,2.7,2.7,4.7,2.7c2.7,0,4.9-1.9,5.4-4.5H95V24z M50,42.1H32.9V7.9h17.6
	c9.8,0,16.7,7.6,16.7,17.1S59.8,42.1,50,42.1z M75,27.5c-1.4,0-2.5-1.1-2.5-2.5c0-1.4,1.1-2.5,2.5-2.5s2.5,1.1,2.5,2.5
	C77.5,26.4,76.4,27.5,75,27.5z"/>
</svg>
