<?xml version="1.0" encoding="utf-8"?>
<!-- Generator: Adobe Illustrator 22.1.0, SVG Export Plug-In . SVG Version: 6.00 Build 0)  -->
<svg version="1.1" id="Calque_1" xmlns="http://www.w3.org/2000/svg" xmlns:xlink="http://www.w3.org/1999/xlink" x="0px" y="0px"
	 viewBox="0 0 100 50" style="enable-background:new 0 0 100 50;" xml:space="preserve">
<style type="text/css">
	.st0{fill:none;stroke:#000000;stroke-width:2;}
	.st1{fill:none;stroke:#000000;stroke-width:3;}
</style>
<path class="st0" d="M79,25h16 M31,15H5 M31,24.7H5 M32,35H5"/>
<path d="M30,5v40h20.5c11.3,0,20-9,20-20s-8.7-20-20-20H30z M32.9,7.9h17.6c9.8,0,16.7,7.6,16.7,17.1S59.8,42.1,50,42.1H32.9
	C32.9,42.1,32.9,7.9,32.9,7.9z"/>
<path class="st1" d="M79,25c0,2.2-1.8,4-4,4s-4-1.8-4-4s1.8-4,4-4S79,22.8,79,25z"/>
</svg>
