<?xml version="1.0" encoding="utf-8"?>
<!-- Generator: Adobe Illustrator 26.0.3, SVG Export Plug-In . SVG Version: 6.00 Build 0)  -->
<svg version="1.1" id="Layer_1" xmlns="http://www.w3.org/2000/svg" xmlns:xlink="http://www.w3.org/1999/xlink" x="0px" y="0px"
	 viewBox="0 0 100 50" style="enable-background:new 0 0 100 50;" xml:space="preserve" fill="currentColor">
<path d="M95,24H70.4c-0.5-10.5-9-19-20-19H30v9H5v2h25v15.9c-1-1.4-2.6-2.3-4.5-2.3c-2.7,0-4.9,1.9-5.4,4.5H5v2h15.1
	c0.5,2.6,2.7,4.5,5.4,4.5c1.9,0,3.5-0.9,4.5-2.3V45h20.5c10.9,0,19.4-8.5,20-19H95V24z M25.5,37.5c-1.4,0-2.5-1.1-2.5-2.5
	s1.1-2.5,2.5-2.5S28,33.6,28,35S26.9,37.5,25.5,37.5z M50,42.1H32.9V7.9h17.6c9.8,0,16.7,7.6,16.7,17.1S59.8,42.1,50,42.1z"/>
</svg>
