<?xml version="1.0" encoding="utf-8"?>
<!-- Generator: Adobe Illustrator 26.0.3, SVG Export Plug-In . SVG Version: 6.00 Build 0)  -->
<svg version="1.1" id="Calque_1" xmlns="http://www.w3.org/2000/svg" xmlns:xlink="http://www.w3.org/1999/xlink" x="0px" y="0px"
	 viewBox="0 0 100 50" style="enable-background:new 0 0 100 50;" xml:space="preserve" fill="currentColor">
<path d="M95,24H80.4c-0.5-2.6-2.7-4.5-5.4-4.5c-1.7,0-3.2,0.8-4.2,1.9C60.6,5.2,45.7,5,41.2,5H24.1l2,2.4c0,0,2,2.4,3.6,6.6H5v2
	h25.4c0.7,2.3,1.2,4.9,1.4,7.9H5v2h26.8c-0.1,3-0.6,5.8-1.4,8.1H5v2h24.7c-1.6,4.2-3.6,6.6-3.6,6.6l-2,2.4h17.2
	c2.4,0,7.7,0,13.6-2.4c5.3-2.1,11.1-6.3,16-14c1,1.1,2.5,1.9,4.1,1.9c2.7,0,4.9-1.9,5.4-4.5H95V24z M53.6,39.8
	C48.1,42,43.7,42,41.2,42H30c1.9-3.1,4.8-9,4.8-17s-3-13.9-4.8-17h11.3c4.7,0,18.3-0.1,28,17C64.5,33.4,58.8,37.7,53.6,39.8z
	 M75,27.5c-1.4,0-2.5-1.1-2.5-2.5c0-1.4,1.1-2.5,2.5-2.5s2.5,1.1,2.5,2.5C77.5,26.4,76.4,27.5,75,27.5z"/>
</svg>
