<?xml version="1.0" encoding="utf-8"?>
<!-- Generator: Adobe Illustrator 26.0.3, SVG Export Plug-In . SVG Version: 6.00 Build 0)  -->
<svg version="1.1" id="Calque_1" xmlns="http://www.w3.org/2000/svg" xmlns:xlink="http://www.w3.org/1999/xlink" x="0px" y="0px"
	 viewBox="0 0 100 50" style="enable-background:new 0 0 100 50;" xml:space="preserve" fill="currentColor">
<path d="M29.5,41H5v-2h24.5V41z M32,30.9H5v-2h27V30.9z M95,26H79v-2h16V26z M32.8,21H5v-2h27.8V21z M29.4,10.9H5v-2h24.4V10.9z"/>
<path d="M24.1,5l2,2.4c0,0,5.7,7,5.7,17.6s-5.7,17.6-5.7,17.6l-2,2.4h17.2c2.4,0,7.7,0,13.6-2.4s12.5-7.3,17.7-16.9L71.2,25l1.3-0.7
	C62.3,5.2,46,5,41.2,5H24.1z M30,8h11.3c4.7,0,18.3-0.1,28,17c-4.8,8.4-10.5,12.7-15.7,14.8C48.1,42,43.7,42,41.2,42H30
	c1.9-3.1,4.8-9,4.8-17S31.8,11.1,30,8z"/>
<path d="M75,30.5c-3,0-5.5-2.5-5.5-5.5c0-3,2.5-5.5,5.5-5.5s5.5,2.5,5.5,5.5C80.5,28,78,30.5,75,30.5z M75,22.5
	c-1.4,0-2.5,1.1-2.5,2.5c0,1.4,1.1,2.5,2.5,2.5s2.5-1.1,2.5-2.5C77.5,23.6,76.4,22.5,75,22.5z"/>
</svg>
