<?xml version="1.0" encoding="utf-8"?>
<!-- Generator: Adobe Illustrator 26.0.3, SVG Export Plug-In . SVG Version: 6.00 Build 0)  -->
<svg version="1.1" id="Layer_1" xmlns="http://www.w3.org/2000/svg" xmlns:xlink="http://www.w3.org/1999/xlink" x="0px" y="0px"
	 viewBox="0 0 100 50" style="enable-background:new 0 0 100 50;" xml:space="preserve" fill="currentColor">
<path d="M95,24H80.4c-0.5-2.6-2.7-4.5-5.4-4.5c-2.2,0-4.1,1.3-5,3.1l-38.9-19L29,2.6V24H5v2H29v21.4l2.2-1.1l38.9-19
	c0.9,1.8,2.8,3.1,5,3.1c2.7,0,4.9-1.9,5.4-4.5H95V24z M32,42.6V7.4L68.1,25L32,42.6z M75,27.5c-1.4,0-2.5-1.1-2.5-2.5
	c0-1.4,1.1-2.5,2.5-2.5s2.5,1.1,2.5,2.5C77.5,26.4,76.4,27.5,75,27.5z"/>
</svg>
