<svg xmlns="http://www.w3.org/2000/svg" xmlns:xlink="http://www.w3.org/1999/xlink" viewBox="0 0 32 32"><defs><path id="a" d="M0 0h32v32H0z"/></defs><clipPath id="b"><use xlink:href="#a" overflow="visible"/></clipPath><path clip-path="url(#b)" fill="#FFF" d="M12.6 16.6l-.4-1.6c-.2-.6-.3-.9-.5-1.2-.2-.5-.3-.7-.5-1.2-.1-.3-.4-1-.5-1.4-.1-.5 0-.9.2-1.2.3-.3 1-.5 1.4-.4.4.1.7.5.9.8.3.5.4.6.7 1.5.4 1 .6 1.9.6 2.2l.1.5v-1.2c0-1-.1-1.8 0-2.9 0-.1.1-.6.1-.7.1-.5.3-.8.7-1 .4-.2.9-.2 1.4 0 .4.2.6.5.7 1 0 .1.1 1 .1 1.1v3.7c.1-.7.1-3.2.3-3.9.1-.4.4-.7.8-.9.4-.2 1.1-.1 1.4.2.3.3.4.7.5 1.2v3.5c.1-.3.2-.5.3-.7 0-.1.2-.6.4-.9.1-.2.2-.4.4-.7.2-.3.4-.4.7-.6.5-.2 1.1.1 1.3.6.1.2 0 .7 0 1.1-.1.6-.3 1.3-.4 1.6-.1.4-.3 1.2-.3 1.6-.1.4-.2 1.4-.4 1.8-.1.3-.4 1-.7 1.4 0 0-1.1 1.2-1.2 1.8-.1.6-.1.6-.1 1s.1.9.1.9-.8.1-1.2 0c-.4-.1-.9-.8-1-1.1-.2-.3-.5-.3-.7 0-.2.4-.7 1.1-1.1 1.1-.7.1-2.1 0-3.1 0 0 0 .2-1-.2-1.4l-1.1-1.1-.8-.9c-.3-.4-.6-1.1-1.2-2-.3-.5-1-1.1-1.3-1.6-.2-.4-.3-1-.2-1.3.2-.6.7-.9 1.4-.8.5 0 .8.2 1.2.5.2.2.6.5.8.7.2.2.2.3.4.5v.4"/><path clip-path="url(#b)" fill="none" stroke="#000" stroke-width=".75" stroke-linecap="round" stroke-linejoin="round" d="M12.6 16.6l-.4-1.6c-.2-.6-.3-.9-.5-1.2-.2-.5-.3-.7-.5-1.2-.1-.3-.4-1-.5-1.4-.1-.5 0-.9.2-1.2.3-.3 1-.5 1.4-.4.4.1.7.5.9.8.3.5.4.6.7 1.5.4 1 .6 1.9.6 2.2l.1.5v-1.2c0-1-.1-1.8 0-2.9 0-.1.1-.6.1-.7.1-.5.3-.8.7-1 .4-.2.9-.2 1.4 0 .4.2.6.5.7 1 0 .1.1 1 .1 1.1v3.7c.1-.7.1-3.2.3-3.9.1-.4.4-.7.8-.9.4-.2 1.1-.1 1.4.2.3.3.4.7.5 1.2v3.5c.1-.3.2-.5.3-.7 0-.1.2-.6.4-.9.1-.2.2-.4.4-.7.2-.3.4-.4.7-.6.5-.2 1.1.1 1.3.6.1.2 0 .7 0 1.1-.1.6-.3 1.3-.4 1.6-.1.4-.3 1.2-.3 1.6-.1.4-.2 1.4-.4 1.8-.1.3-.4 1-.7 1.4 0 0-1.1 1.2-1.2 1.8-.1.6-.1.6-.1 1s.1.9.1.9-.8.1-1.2 0c-.4-.1-.9-.8-1-1.1-.2-.3-.5-.3-.7 0-.2.4-.7 1.1-1.1 1.1-.7.1-2.1 0-3.1 0 0 0 .2-1-.2-1.4l-1.1-1.1-.8-.9c-.3-.4-.6-1.1-1.2-2-.3-.5-1-1.1-1.3-1.6-.2-.4-.3-1-.2-1.3.2-.6.7-.9 1.4-.8.5 0 .8.2 1.2.5.2.2.6.5.8.7.2.2.2.3.4.5v.4"/><path clip-path="url(#b)" fill="none" stroke="#000" stroke-width=".75" stroke-linecap="round" d="M19.6 20.7v-3.4M17.6 20.7l-.1-3.4M15.6 17.3v3.4"/></svg>