<?xml version="1.0" encoding="utf-8"?>
<!-- Generator: Adobe Illustrator 26.0.3, SVG Export Plug-In . SVG Version: 6.00 Build 0)  -->
<svg version="1.1" id="Calque_1" xmlns="http://www.w3.org/2000/svg" xmlns:xlink="http://www.w3.org/1999/xlink" x="0px" y="0px"
	 viewBox="0 0 100 50" style="enable-background:new 0 0 100 50;" xml:space="preserve" fill="currentColor">
<path d="M95,24H72.3C62.1,5.2,46,5,41.2,5H24.1l2,2.4c0,0,2,2.4,3.6,6.6H5v2h25.4c0.7,2.3,1.3,5,1.4,8H5v2h26.8
	c-0.1,3-0.6,5.7-1.4,8H5v2h24.7c-1.6,4.2-3.6,6.6-3.6,6.6l-2,2.4h17.2c2.4,0,7.7,0,13.6-2.4c5.8-2.4,12.4-7.2,17.5-16.6H95V24z
	 M53.6,39.8C48.1,42,43.7,42,41.2,42H30c1.9-3.1,4.8-9,4.8-17s-3-13.9-4.8-17h11.3c4.7,0,18.3-0.1,28,17
	C64.5,33.4,58.8,37.7,53.6,39.8z"/>
</svg>
