<?xml version="1.0" encoding="utf-8"?>
<!-- Generator: Adobe Illustrator 22.1.0, SVG Export Plug-In . SVG Version: 6.00 Build 0)  -->
<svg version="1.1" id="Calque_1" xmlns="http://www.w3.org/2000/svg" xmlns:xlink="http://www.w3.org/1999/xlink" x="0px" y="0px"
	 viewBox="0 0 100 50" style="enable-background:new 0 0 100 50;" xml:space="preserve">
<style type="text/css">
	.st0{fill:none;stroke:#000000;stroke-width:2;}
</style>
<path class="st0" d="M70,25h25 M29.6,9.9H5 M32,29.9H5 M32.4,19.9H5 M29.6,39.9H5"/>
<path d="M24.1,5l2,2.4c0,0,5.7,7,5.7,17.6s-5.7,17.6-5.7,17.6l-2,2.4h17.2c2.4,0,7.7,0,13.6-2.4s12.5-7.3,17.7-16.9L71.2,25l1.3-0.7
	C62.3,5.2,46,5,41.2,5H24.1z M30,8h11.3c4.7,0,18.3-0.1,28,17c-4.8,8.4-10.5,12.7-15.7,14.8C48.1,42,43.7,42,41.2,42H30
	c1.9-3.1,4.8-9,4.8-17C34.8,17,31.8,11.1,30,8z"/>
</svg>
