<?xml version="1.0" encoding="utf-8"?>
<!-- Generator: Adobe Illustrator 26.0.3, SVG Export Plug-In . SVG Version: 6.00 Build 0)  -->
<svg version="1.1" id="Layer_1" xmlns="http://www.w3.org/2000/svg" xmlns:xlink="http://www.w3.org/1999/xlink" x="0px" y="0px"
	 viewBox="0 0 1792 1792" style="enable-background:new 0 0 1792 1792;" xml:space="preserve" fill="currentColor">
<path d="M370.3,38.4v117.4H0.6v46.1h369.7v49.7H0.6v46.1h369.7v49.6H0.6v46.1h369.7v49.7H0.6v46.1h369.7v50.7H1.6V584h368.7v51.6
	H1.6v44.1h368.7v51.7H1.6v44.1h368.7v51.7H1.6v44.1h368.7v51.6H1.6V967h368.7v51.7H1.6v44.1h368.7v51.7H1.6v44.1h368.7v51.7H1.6
	v44.1h368.7v51.6H1.6v44.1h368.7v51.7H1.6v44.1h368.7v51.7H1.6v44.1h368.7v51.6H1.6v44.1h368.7v119.4h1289.9V38.4H370.3z
	 M1540.2,1636.8H490.3V158.4h1049.9V1636.8z"/>
<g fill="#00ff00" fill-opacity="0.65" stroke="#000000" stroke-width="7">
	<polygon points="650,313.2 694.8,268.5 954.5,268.5 1001.1,315 958.2,357.9 693.7,357.9 	"/>
	<polygon points="1034.4,313.2 1079.2,268.5 1339,268.5 1385.5,315 1342.6,357.9 1078.2,357.9 	"/>
	<polygon points="1404.5,873.1 1359.7,828.4 1359.7,380.6 1406.3,334.1 1449.2,376.9 1449.2,829.4 	"/>
	<polygon points="627.8,873.1 583.1,828.4 583.1,380.6 629.6,334.1 672.5,376.9 672.5,829.4 	"/>
	<polygon points="1404.5,1455.3 1359.7,1410.5 1359.7,962.8 1406.3,916.3 1449.2,959.1 1449.2,1411.6 	"/>
	<polygon points="627.8,1455.3 583.1,1410.5 583.1,962.8 629.6,916.3 672.5,959.1 672.5,1411.6 	"/>
	<polygon points="1015.3,873.1 970.5,828.4 970.5,380.6 1017.1,334.1 1060,376.9 1060,829.4 	"/>
	<polygon points="948.2,826 891.4,826 697,457.4 697,384.2 752.5,384.2 948.2,757.1 	"/>
	<polygon points="1084.2,757.1 1279.9,384.2 1335.5,384.2 1335.5,457.4 1141,826 1084.2,826 	"/>
	<polygon points="695.9,1337.8 891.6,964.9 947.1,964.9 947.1,1038 752.7,1406.6 695.9,1406.6 	"/>
	<polygon points="1335.6,1406.6 1278.8,1406.6 1084.3,1038 1084.3,964.9 1139.9,964.9 1335.6,1337.8 	"/>
	<polygon points="1015.3,1455.3 970.5,1410.5 970.5,962.8 1017.1,916.3 1060,959.1 1060,1411.6 	"/>
	<polygon points="650,893.6 694.8,848.9 954.5,848.9 1001.1,895.4 958.2,938.3 693.7,938.3 	"/>
	<polygon points="1034.4,893.6 1079.2,848.9 1339,848.9 1385.5,895.4 1342.6,938.3 1078.2,938.3 	"/>
	<polygon points="650,1474 694.8,1429.3 954.5,1429.3 1001.1,1475.8 958.2,1518.7 693.7,1518.7 	"/>
	<polygon points="1034.4,1474 1079.2,1429.3 1339,1429.3 1385.5,1475.8 1342.6,1518.7 1078.2,1518.7 	"/>
</g>
</svg>
