<?xml version="1.0" encoding="utf-8"?>
<!-- Generator: Adobe Illustrator 26.0.3, SVG Export Plug-In . SVG Version: 6.00 Build 0)  -->
<svg version="1.1" id="Layer_1" xmlns="http://www.w3.org/2000/svg" xmlns:xlink="http://www.w3.org/1999/xlink" x="0px" y="0px"
	 viewBox="0 0 1792 1792" style="enable-background:new 0 0 1792 1792;" xml:space="preserve">
<style type="text/css">
	.st0{stroke:#000000;stroke-width:4.966;}
	.st1{fill:none;stroke:#000000;stroke-width:120;}
	.st2{fill:#14FF14;stroke:#000000;stroke-width:20;}
</style>
<rect x="2.5" y="286.6" class="st0" width="430.9" height="95"/>
<rect x="-0.6" y="478.2" class="st0" width="430.9" height="95"/>
<rect x="0.5" y="1416.5" class="st0" width="430.9" height="95"/>
<rect x="2.5" y="1034.2" class="st0" width="430.9" height="95"/>
<path class="st0" d="M2.5,659.1h430.9v95H2.5V659.1z M2.5,1222h430.9v95H2.5V1222z M2.1,846.1H433v95H2.1V846.1z"/>
<rect x="430.3" y="98.4" class="st1" width="1169.9" height="1598.4"/>
<polygon class="st2" points="760.4,334.1 826,268.5 1206.9,268.5 1275.1,336.7 1212.3,399.6 824.5,399.6 "/>
<polygon class="st2" points="760.4,893.6 826,828.1 1206.9,828.1 1275.1,896.3 1212.3,959.1 824.5,959.1 "/>
<polygon class="st2" points="760.4,1446 826,1380.4 1206.9,1380.4 1275.1,1448.6 1212.3,1511.5 824.5,1511.5 "/>
<polygon class="st2" points="735.6,1416.4 670,1350.8 670,993.8 738.2,925.6 801.1,988.5 801.1,1352.3 "/>
<polygon class="st2" points="735.6,864.3 670,798.8 670,441.8 738.2,373.6 801.1,436.5 801.1,800.2 "/>
<polygon class="st2" points="1294.7,1416.4 1229.1,1350.8 1229.1,993.8 1297.3,925.6 1360.2,988.5 1360.2,1352.3 "/>
<polygon class="st2" points="1294.7,864.3 1229.1,798.8 1229.1,441.8 1297.3,373.6 1360.2,436.5 1360.2,800.2 "/>
</svg>
