<?xml version="1.0" encoding="utf-8"?>
<!-- Generator: Adobe Illustrator 26.0.3, SVG Export Plug-In . SVG Version: 6.00 Build 0)  -->
<svg version="1.1" id="Layer_1" xmlns="http://www.w3.org/2000/svg" xmlns:xlink="http://www.w3.org/1999/xlink" x="0px" y="0px"
	 viewBox="0 0 1792 1792" style="enable-background:new 0 0 1792 1792;" xml:space="preserve">
<style type="text/css">
	.st0{fill:none;}
	.st1{fill:#0000F4;}
	.st2{font-family:'Helvetica-Bold';}
	.st3{font-size:491.38px;}
	.st4{stroke:#000000;stroke-width:6.808;}
	.st5{stroke:#000000;stroke-width:97.976;stroke-linejoin:round;}
</style>
<path class="st0" d="M-1-1h582v402H-1V-1z"/>
<path d="M1264.1,672.5c0-49.7-9.7-97-29-142.2c-19.3-45.1-45.5-84.1-78.4-117.1s-72-59.1-117.1-78.4c-45.1-19.3-92.5-29-142.2-29
	c-49.7,0-97,9.7-142.2,29c-45.1,19.3-84.1,45.5-117.1,78.4s-59.1,72-78.4,117.1c-19.3,45.1-29,92.5-29,142.2c0,49.7,9.7,97,29,142.2
	c19.3,45.1,45.5,84.1,78.4,117.1s72,59.1,117.1,78.4c45.1,19.3,92.5,29,142.2,29c49.7,0,97-9.7,142.2-29
	c45.1-19.3,84.1-45.5,117.1-78.4s59.1-72,78.4-117.1C1254.4,769.6,1264.1,722.2,1264.1,672.5L1264.1,672.5z M1447.4,672.5
	c0,99.8-24.6,191.8-73.8,276.1c-49.2,84.3-115.9,151-200.2,200.2s-176.3,73.8-276.1,73.8c-99.8,0-191.8-24.6-276.1-73.8
	c-84.3-49.2-151-115.9-200.2-200.2c-49.2-84.3-73.8-176.3-73.8-276.1c0-99.8,24.6-191.8,73.8-276.1c49.2-84.3,115.9-151,200.2-200.2
	s176.3-73.8,276.1-73.8s191.8,24.6,276.1,73.8c84.3,49.2,151,115.9,200.2,200.2C1422.9,480.7,1447.4,572.7,1447.4,672.5
	L1447.4,672.5z"/>
<text transform="matrix(1 0 0 1 322.654 1690.528)" class="st1 st2 st3">OUT</text>
<path class="st4" d="M3.4,568.8h429v179.4H3.4V568.8z"/>
<path class="st5" d="M213.6,409.6v484.8l0.8-1.3l137.8-231.7l0.1-0.2l-0.1-0.2L214.3,409.4L213.6,409.6z M213.6,409.8l137.7,251.4
	L214.4,891.4V409.6L213.6,409.8z"/>
</svg>
