<?xml version="1.0" encoding="utf-8"?>
<!-- Generator: Adobe Illustrator 26.0.3, SVG Export Plug-In . SVG Version: 6.00 Build 0)  -->
<svg version="1.1" id="Layer_1" xmlns="http://www.w3.org/2000/svg" xmlns:xlink="http://www.w3.org/1999/xlink" x="0px" y="0px"
	 viewBox="0 0 1792 1792" style="enable-background:new 0 0 1792 1792;" xml:space="preserve">
<style type="text/css">
	.st0{stroke:#000000;stroke-width:2;}
	.st1{fill:none;stroke:#000000;stroke-width:120;}
	.st2{fill:#14FF14;stroke:#000000;stroke-width:15;}
</style>
<rect x="1.6" y="444.1" class="st0" width="430.9" height="44.1"/>
<rect x="1.6" y="348.3" class="st0" width="430.9" height="44.1"/>
<rect x="1.6" y="252.6" class="st0" width="430.9" height="44.1"/>
<rect x="1.6" y="156.8" class="st0" width="430.9" height="44.1"/>
<rect x="1.6" y="827.2" class="st0" width="430.9" height="44.1"/>
<rect x="1.6" y="635.6" class="st0" width="430.9" height="44.1"/>
<rect x="1.6" y="539.9" class="st0" width="430.9" height="44.1"/>
<rect x="1.6" y="922.9" class="st0" width="430.9" height="44.1"/>
<rect x="1.6" y="731.4" class="st0" width="430.9" height="44.1"/>
<rect x="1.6" y="1018.7" class="st0" width="430.9" height="44.1"/>
<rect x="1.6" y="1114.5" class="st0" width="430.9" height="44.1"/>
<rect x="1.6" y="1497.6" class="st0" width="430.9" height="44.1"/>
<rect x="1.6" y="1306" class="st0" width="430.9" height="44.1"/>
<rect x="1.6" y="1210.3" class="st0" width="430.9" height="44.1"/>
<rect x="1.6" y="1593.3" class="st0" width="430.9" height="44.1"/>
<rect x="1.6" y="1401.8" class="st0" width="430.9" height="44.1"/>
<rect x="430.3" y="98.4" class="st1" width="1169.9" height="1598.4"/>
<polygon class="st2" points="650,313.2 694.8,268.5 954.5,268.5 1001.1,315 958.2,357.9 693.7,357.9 "/>
<polygon class="st2" points="1034.4,313.2 1079.2,268.5 1339,268.5 1385.5,315 1342.6,357.9 1078.2,357.9 "/>
<polygon class="st2" points="1404.5,873.1 1359.7,828.4 1359.7,380.6 1406.3,334.1 1449.2,376.9 1449.2,829.4 "/>
<polygon class="st2" points="627.8,873.1 583.1,828.4 583.1,380.6 629.6,334.1 672.5,376.9 672.5,829.4 "/>
<polygon class="st2" points="1404.5,1455.3 1359.7,1410.5 1359.7,962.8 1406.3,916.3 1449.2,959.1 1449.2,1411.6 "/>
<polygon class="st2" points="627.8,1455.3 583.1,1410.5 583.1,962.8 629.6,916.3 672.5,959.1 672.5,1411.6 "/>
<polygon class="st2" points="1015.3,873.1 970.5,828.4 970.5,380.6 1017.1,334.1 1060,376.9 1060,829.4 "/>
<polygon class="st2" points="948.2,826 891.4,826 697,457.4 697,384.2 752.5,384.2 948.2,757.1 "/>
<polygon class="st2" points="1084.2,757.1 1279.9,384.2 1335.5,384.2 1335.5,457.4 1141,826 1084.2,826 "/>
<polygon class="st2" points="695.9,1337.8 891.6,964.9 947.1,964.9 947.1,1038 752.7,1406.6 695.9,1406.6 "/>
<polygon class="st2" points="1335.6,1406.6 1278.8,1406.6 1084.3,1038 1084.3,964.9 1139.9,964.9 1335.6,1337.8 "/>
<polygon class="st2" points="1015.3,1455.3 970.5,1410.5 970.5,962.8 1017.1,916.3 1060,959.1 1060,1411.6 "/>
<polygon class="st2" points="650,893.6 694.8,848.9 954.5,848.9 1001.1,895.4 958.2,938.3 693.7,938.3 "/>
<polygon class="st2" points="1034.4,893.6 1079.2,848.9 1339,848.9 1385.5,895.4 1342.6,938.3 1078.2,938.3 "/>
<polygon class="st2" points="650,1474 694.8,1429.3 954.5,1429.3 1001.1,1475.8 958.2,1518.7 693.7,1518.7 "/>
<polygon class="st2" points="1034.4,1474 1079.2,1429.3 1339,1429.3 1385.5,1475.8 1342.6,1518.7 1078.2,1518.7 "/>
</svg>
