<?xml version="1.0" encoding="utf-8"?>
<!-- Generator: Adobe Illustrator 26.0.3, SVG Export Plug-In . SVG Version: 6.00 Build 0)  -->
<svg version="1.1" id="Calque_1" xmlns="http://www.w3.org/2000/svg" xmlns:xlink="http://www.w3.org/1999/xlink" x="0px" y="0px"
	 viewBox="0 0 1792 1792" style="enable-background:new 0 0 1792 1792;" xml:space="preserve">
<style type="text/css">
	.st0{fill:none;}
	.st1{fill:none;stroke:#000000;stroke-width:120;}
	.st2{fill:none;stroke:#000000;stroke-width:50;}
</style>
<path class="st0" d="M1661.1,1787.9h-582v-402h582V1787.9z"/>
<rect x="383.8" y="107.3" class="st1" width="763.3" height="1582.2"/>
<line class="st2" x1="1147.1" y1="1464.9" x2="383.8" y2="1464.9"/>
<line class="st2" x1="1145.8" y1="1653.7" x2="382.4" y2="1653.7"/>
<line class="st2" x1="1174.4" y1="143" x2="411.1" y2="143"/>
<line class="st2" x1="1147.1" y1="1276" x2="383.8" y2="1276"/>
<line class="st2" x1="1147.1" y1="1087.2" x2="383.8" y2="1087.2"/>
<line class="st2" x1="1147.1" y1="898.3" x2="383.8" y2="898.3"/>
<line class="st2" x1="1147.1" y1="709.5" x2="383.8" y2="709.5"/>
<line class="st2" x1="1147.1" y1="520.6" x2="383.8" y2="520.6"/>
<line class="st2" x1="1147.1" y1="331.8" x2="383.8" y2="331.8"/>
<line class="st2" x1="355.9" y1="1363" x2="-0.4" y2="1363"/>
<line class="st2" x1="355.3" y1="1551.9" x2="-1" y2="1551.9"/>
<line class="st2" x1="355.9" y1="1174.2" x2="-0.4" y2="1174.2"/>
<line class="st2" x1="355.9" y1="985.3" x2="-0.4" y2="985.3"/>
<line class="st2" x1="355.9" y1="796.5" x2="-0.4" y2="796.5"/>
<line class="st2" x1="355.9" y1="607.6" x2="-0.4" y2="607.6"/>
<line class="st2" x1="355.9" y1="418.8" x2="-0.4" y2="418.8"/>
<line class="st2" x1="355.9" y1="229.9" x2="-0.4" y2="229.9"/>
</svg>
