<svg xmlns="http://www.w3.org/2000/svg" width="1792" height="1792"><path fill="none" d="M-1-1h582v402H-1z"/><g><text font-weight="bold" font-family="Georgia, Times, 'Times New Roman', serif" font-size="666.667" y="1163.657" x="581.836" stroke-width="0" stroke="#000" fill="#0000f4"><tspan style="-inkscape-font-specification:'sans-serif Bold'" font-weight="700" font-family="sans-serif">&apos;X&apos;</tspan></text><path stroke="#000" stroke-width="4.966" d="M2.483 286.553h430.852v95.034H2.483zM-.58 478.208h430.852v95.034H-.58zM.483 1416.514h430.852v95.034H.483zM2.483 1034.248h430.852v95.034H2.483z"/><path stroke="#000" stroke-width="11.311" d="M430.656 111.664h1214.813v174.889H430.656zM430.656 1511.549h1214.813v174.889H430.656z"/><path stroke="#000" stroke-width="12.878" d="M1470.58 1686.438V111.664h174.889v1574.774zM430.656 1686.438V111.664h174.889v1574.774z"/><path stroke="#000" stroke-width="4.966" d="M2.483 659.146h430.852v95.034H2.483zM2.483 1221.989h430.852v95.034H2.483zM2.062 846.128h430.852v95.034H2.062z"/></g></svg>