<?xml version="1.0" encoding="utf-8"?>
<!-- Generator: Adobe Illustrator 26.0.3, SVG Export Plug-In . SVG Version: 6.00 Build 0)  -->
<svg version="1.1" id="Calque_1" xmlns="http://www.w3.org/2000/svg" xmlns:xlink="http://www.w3.org/1999/xlink" x="0px" y="0px"
	 viewBox="0 0 1792 1792" style="enable-background:new 0 0 1792 1792;" xml:space="preserve" fill="currentColor">
<path d="M323.8,47.3v157.6H-0.4v50h324.2v138.9H-0.4v50h324.2v138.8H-0.4v50h324.2v138.9H-0.4v50h324.2v138.8H-0.4v50h324.2v138.9
	H-0.4v50h324.2V1338H-0.4v50h324.2v138.9H-1v50h324.8v172.6h883.3V47.3H323.8z M443.8,1628.7v-138.8h643.3v138.8H443.8z
	 M443.8,1439.9V1301h643.3v138.9H443.8z M443.8,1251v-138.8h643.3V1251H443.8z M443.8,1062.2V923.3h643.3v138.9H443.8z M443.8,873.3
	V734.5h643.3v138.8H443.8z M443.8,684.5V545.6h643.3v138.9H443.8z M443.8,495.6V356.8h643.3v138.8H443.8z M443.8,306.8V168h643.3
	v138.8H443.8z"/>
</svg>
