<?xml version="1.0" encoding="utf-8"?>
<!-- Generator: Adobe Illustrator 26.0.3, SVG Export Plug-In . SVG Version: 6.00 Build 0)  -->
<svg version="1.1" id="Layer_1" xmlns="http://www.w3.org/2000/svg" xmlns:xlink="http://www.w3.org/1999/xlink" x="0px" y="0px"
	 viewBox="0 0 32 24" style="enable-background:new 0 0 32 24;" xml:space="preserve" fill="currentColor">
<path d="M24.1,7.2c-0.9-1.5-2-2.7-3.5-3.5c-1.5-0.9-3.1-1.3-4.9-1.3s-3.4,0.4-4.9,1.3c-1.5,0.9-2.7,2-3.5,3.5c-0.6,0.9-0.9,2-1.1,3
	L4.5,7c-0.2-0.4-0.6-0.5-1-0.4l0,0C3.1,6.7,2.9,7,2.9,7.4v0c0,0,0,0,0,0v2.8H0v3.2h2.8V16c0,0.4,0.3,0.7,0.6,0.8c0.1,0,0.2,0,0.2,0
	c0.3,0,0.6-0.2,0.7-0.4l0,0c0,0,0,0,0,0l1.7-2.9c0.2,1.2,0.6,2.3,1.2,3.4c0.9,1.5,2,2.7,3.5,3.5c1.5,0.9,3.1,1.3,4.9,1.3
	s3.4-0.4,4.9-1.3c1.5-0.9,2.7-2,3.5-3.5c0.9-1.5,1.3-3.1,1.3-4.9C25.4,10.3,25,8.7,24.1,7.2z M21.7,14.6c-0.3,0.8-0.8,1.5-1.4,2.1
	c-0.6,0.6-1.3,1-2.1,1.4c-0.8,0.3-1.6,0.5-2.5,0.5S14,18.3,13.3,18c-0.8-0.3-1.5-0.8-2.1-1.4c-0.6-0.6-1-1.3-1.4-2.1
	c-0.3-0.8-0.5-1.6-0.5-2.5c0-0.9,0.2-1.7,0.5-2.5c0.3-0.8,0.8-1.5,1.4-2.1c0.6-0.6,1.3-1,2.1-1.4c0.8-0.3,1.6-0.5,2.5-0.5
	s1.7,0.2,2.5,0.5c0.8,0.3,1.5,0.8,2.1,1.4c0.6,0.6,1,1.3,1.4,2.1c0.3,0.8,0.5,1.6,0.5,2.5C22.2,12.9,22,13.8,21.7,14.6z"/>
</svg>
