<?xml version="1.0" encoding="utf-8"?>
<!-- Generator: Adobe Illustrator 26.0.3, SVG Export Plug-In . SVG Version: 6.00 Build 0)  -->
<svg version="1.1" id="Calque_1" xmlns="http://www.w3.org/2000/svg" xmlns:xlink="http://www.w3.org/1999/xlink" x="0px" y="0px" viewBox="0 0 100 60.5" style="enable-background:new 0 0 100 60.5;" xml:space="preserve" fill="currentColor">
	<path d="M17.9,15.7h3.7c0.8,0,1.5,0.1,1.9,0.2c0.6,0.2,1.1,0.5,1.5,0.9s0.7,1,1,1.6c0.2,0.6,0.3,1.4,0.3,2.4c0,0.8-0.1,1.5-0.3,2.1
		c-0.3,0.7-0.6,1.3-1.1,1.8c-0.4,0.3-0.8,0.6-1.4,0.8c-0.4,0.1-1,0.2-1.8,0.2h-3.8V15.7z M19.9,17.4V24h1.5c0.6,0,1,0,1.2-0.1
		c0.3-0.1,0.6-0.2,0.8-0.4s0.4-0.5,0.5-1c0.1-0.4,0.2-1.1,0.2-1.8s-0.1-1.4-0.2-1.8s-0.3-0.7-0.6-1s-0.6-0.4-0.9-0.5
		c-0.3-0.1-0.8-0.1-1.7-0.1H19.9z" />
	<path d="M13,10v8.5H5v2h8V40H5v2h8v9.6h83.3V10H13z M16,36.5l8.7,3.8L16,44.1V36.5z M93.3,48.6H16V46l0.1,0.2l13.6-5.9l-13.6-5.9
	L16,34.6V13h77.3V48.6z" />
	<g fill="#8888ff" fill-opacity="1">
		<path d="M43.4,38.9h-3.3V27.5h-3.9v-2.2c1,0,1.7-0.1,2.1-0.2c0.7-0.1,1.2-0.4,1.6-0.9c0.3-0.3,0.5-0.7,0.6-1.2
		c0.1-0.3,0.1-0.5,0.1-0.7h2.7V38.9z" />
		<path d="M53.9,39.3c-2.1,0-3.6-0.7-4.4-2.2c-0.8-1.5-1.3-3.6-1.3-6.3s0.4-4.8,1.3-6.3c0.8-1.5,2.3-2.2,4.4-2.2
		c2.1,0,3.6,0.7,4.4,2.2c0.8,1.5,1.3,3.6,1.3,6.3s-0.4,4.8-1.3,6.3C57.5,38.5,56,39.3,53.9,39.3z M55.8,35.1c0.3-1,0.4-2.4,0.4-4.3
		c0-2-0.1-3.5-0.4-4.4S54.9,25,53.9,25c-1,0-1.6,0.5-1.9,1.4s-0.5,2.4-0.5,4.4c0,1.9,0.2,3.3,0.5,4.3s0.9,1.5,1.9,1.5
		C54.9,36.6,55.5,36.1,55.8,35.1z" />
		<path d="M69.3,38.9H66V27.5h-3.9v-2.2c1,0,1.7-0.1,2.1-0.2c0.7-0.1,1.2-0.4,1.6-0.9c0.3-0.3,0.5-0.7,0.6-1.2
		c0.1-0.3,0.1-0.5,0.1-0.7h2.7V38.9z" />
		<path d="M79.8,39.3c-2.1,0-3.6-0.7-4.4-2.2s-1.3-3.6-1.3-6.3s0.4-4.8,1.3-6.3s2.3-2.2,4.4-2.2c2.1,0,3.6,0.7,4.4,2.2
		c0.8,1.5,1.3,3.6,1.3,6.3s-0.4,4.8-1.3,6.3C83.4,38.5,81.9,39.3,79.8,39.3z M81.7,35.1c0.3-1,0.4-2.4,0.4-4.3c0-2-0.1-3.5-0.4-4.4
		S80.8,25,79.8,25c-1,0-1.6,0.5-1.9,1.4s-0.5,2.4-0.5,4.4c0,1.9,0.2,3.3,0.5,4.3s0.9,1.5,1.9,1.5C80.8,36.6,81.4,36.1,81.7,35.1z" />
	</g>
</svg>