<?xml version="1.0" encoding="utf-8"?>
<!-- Generator: Adobe Illustrator 26.0.3, SVG Export Plug-In . SVG Version: 6.00 Build 0)  -->
<svg version="1.1" id="Calque_1" xmlns="http://www.w3.org/2000/svg" xmlns:xlink="http://www.w3.org/1999/xlink" x="0px" y="0px" viewBox="0 0 100 100" style="enable-background:new 0 0 100 100;" xml:space="preserve" fill="currentColor">
	<path d="M36.5,18.8v67h27.1v-67H36.5z M38.5,37.5h4.4V44h-4.4V37.5z M44.1,52.5v-7.2h4.6v7.2H44.1z M48.7,53.8v6.5h-4.6v-6.5H48.7z
	 M38.5,45.3h4.4v7.2h-4.4V45.3z M44.1,44v-6.5h4.6V44H44.1z M38.5,53.8h4.4v6.5h-4.4V53.8z M38.5,61.6h4.4v6.8h-4.4V61.6z
	 M44.1,61.6h4.6v6.8h-4.6V61.6z M50,61.6h5.1v6.8H50V61.6z M50,60.3v-6.5h5.1v6.5H50z M50,52.5v-7.2h5.1v7.2H50z M50,44v-6.5h5.1V44
	H50z M50,36.2v-7h5.1v7H50z M50,27.9v-7h5.1v7H50z M48.7,27.9h-4.6v-7h4.6V27.9z M48.7,29.2v7h-4.6v-7H48.7z M42.8,36.2h-4.4v-7h4.4
	V36.2z M38.5,69.7h4.4v6.5h-4.4V69.7z M44.1,69.7h4.6v6.5h-4.6V69.7z M48.7,77.5v6.3h-4.6v-6.3H48.7z M50,77.5h5.1v6.3H50V77.5z
	 M50,76.2v-6.5h5.1v6.5H50z M56.4,69.7h5.1v6.5h-5.1V69.7z M56.4,68.4v-6.8h5.1v6.8H56.4z M61.6,60.3h-5.1v-6.5h5.1V60.3z
	 M56.4,52.5v-7.2h5.1v7.2H56.4z M61.6,44h-5.1v-6.5h5.1V44z M56.4,36.2v-7h5.1v7H56.4z M61.6,27.9h-5.1v-7h5.1V27.9z M42.8,20.8v7
	h-4.4v-7H42.8z M38.5,77.5h4.4v6.3h-4.4V77.5z M56.4,83.8v-6.3h5.1v6.3H56.4z" />
	<path d="M24.9,55.7V44.3h3.9c0.9,0,1.6,0.1,2,0.2c0.7,0.2,1.2,0.4,1.7,0.8c0.6,0.5,1.1,1.2,1.4,2c0.3,0.8,0.4,1.7,0.4,2.7
		c0,0.9-0.1,1.6-0.3,2.3s-0.5,1.2-0.8,1.7c-0.3,0.4-0.7,0.8-1,1c-0.4,0.3-0.8,0.4-1.4,0.6c-0.5,0.1-1.1,0.2-1.8,0.2H24.9z
		 M26.4,54.4h2.4c0.8,0,1.3-0.1,1.8-0.2s0.8-0.3,1-0.6c0.4-0.4,0.6-0.8,0.8-1.4c0.2-0.6,0.3-1.3,0.3-2.2c0-1.2-0.2-2.1-0.6-2.8
		c-0.4-0.6-0.9-1.1-1.4-1.3c-0.4-0.2-1.1-0.2-2-0.2h-2.4V54.4z" />
	<path d="M74.5,54.5c0.7,0.5,1.4,0.8,1.9,1.1L76,56.6c-0.8-0.3-1.6-0.8-2.5-1.4c-0.8,0.5-1.8,0.7-2.8,0.7c-1,0-2-0.2-2.8-0.8
		s-1.5-1.2-1.9-2.1c-0.5-0.9-0.7-1.9-0.7-3.1c0-1.1,0.2-2.2,0.7-3.1c0.5-0.9,1.1-1.6,2-2.1c0.8-0.5,1.8-0.7,2.8-0.7
		c1.1,0,2,0.3,2.9,0.8c0.8,0.5,1.5,1.2,1.9,2.1s0.7,1.9,0.7,3.1c0,0.9-0.1,1.8-0.4,2.5C75.5,53.3,75.1,53.9,74.5,54.5z M71.1,52.6
		c0.9,0.2,1.6,0.6,2.2,1.1c0.9-0.8,1.3-2,1.3-3.7c0-0.9-0.2-1.7-0.5-2.4c-0.3-0.7-0.8-1.2-1.4-1.6c-0.6-0.4-1.3-0.6-2-0.6
		c-1.1,0-2.1,0.4-2.8,1.2c-0.7,0.8-1.1,1.9-1.1,3.5c0,1.5,0.4,2.6,1.1,3.4c0.7,0.8,1.7,1.2,2.8,1.2c0.5,0,1.1-0.1,1.5-0.3
		c-0.5-0.3-1-0.5-1.5-0.7L71.1,52.6z" />
	<path d="M94.9,24.8v-2h-15V6.5H73V0h-1.3v6.5h-12V0h-1.3v6.5H45.2V0h-1.3v6.5H31.3V0H30v6.5H19.9v16.3H5v2h14.9v13.6H5v2h14.9v15H5
	v2h14.9v14.3H5v2h14.9v15.6h-15v2h15v8.4h60v-26h15v-2h-15V57.4h15v-2h-15v-15h15v-2h-15V24.8H94.9z M22.9,87.3l7.1,3.1l-7.1,3.1
	V87.3z M76.9,96.7h-54v-1.1L35,90.4l-12.1-5.3V9.5h54V96.7z" />
</svg>