<?xml version="1.0" encoding="utf-8"?>
<!-- Generator: Adobe Illustrator 26.0.3, SVG Export Plug-In . SVG Version: 6.00 Build 0)  -->
<svg version="1.1" id="Calque_1" xmlns="http://www.w3.org/2000/svg" xmlns:xlink="http://www.w3.org/1999/xlink" x="0px" y="0px"
	 viewBox="0 0 100 100" style="enable-background:new 0 0 100 100;" xml:space="preserve">
<style type="text/css">
	.st0{fill:none;stroke:#000000;stroke-width:3;stroke-linecap:square;}
	.st1{fill:none;stroke:#000000;stroke-width:2;stroke-linecap:square;}
	.st2{fill:none;stroke:#000000;stroke-width:2;}
	.st3{fill:none;stroke:#000000;stroke-width:1.3;}
	.st4{fill:none;stroke:#000000;stroke-width:1.2878;}
	.st5{font-family:'ArialMT';}
	.st6{font-size:16px;}
</style>
<g id="g23" transform="translate(-.111 2.446)">
	<path id="path11" class="st0" d="M21.5,5.6h57v90.2h-57V5.6z"/>
	<path id="path13" class="st1" d="M37.6,17.4h25.1v65H37.6V17.4z"/>
	<path id="path15" class="st2" d="M21,87.9H5 M79,70.3h16 M79,54h16 M79,37h16 M79,21.4h16 M5.1,70.3h16 M5.1,54h16 M5.1,37h16
		 M5.1,21.4h16"/>
	<path id="line17" class="st3" d="M38.2,34.4h24"/>
	<path id="line17-6" class="st3" d="M37.7,26.1h24"/>
	<path id="line19" class="st3" d="M38.2,50.7h24"/>
	<path id="line19-7" class="st3" d="M43.6,16.9v64.8"/>
	<path id="line19-7-7" class="st3" d="M55.9,17.2V82"/>
	<path id="line19-7-3" class="st3" d="M49.5,17.1v64.8"/>
	<path id="line21" class="st3" d="M38.2,66.6h24"/>
	<path id="line17-3" class="st3" d="M37.8,42.2h24"/>
	<path id="line19-9" class="st3" d="M37.8,58.5h24"/>
	<path id="line21-8" class="st3" d="M37.8,74.4h24"/>
	<path id="path15-7" class="st4" d="M30.8-2.4v7.8 M44.7-2.4v7.8 M59.2-2.4v7.8 M72.5-2.4v7.8"/>
</g>
<text id="text25" transform="matrix(1 0 0 1 23.699 55.7206)" class="st5 st6">D</text>
<text id="text27" transform="matrix(1 0 0 1 64.5612 55.7207)" class="st5 st6">Q</text>
<path id="path29" class="st2" d="M21,85.4l11.5,5l-11.5,5"/>
</svg>
