<?xml version="1.0" encoding="utf-8"?>
<!-- Generator: Adobe Illustrator 26.0.3, SVG Export Plug-In . SVG Version: 6.00 Build 0)  -->
<svg version="1.1" id="Calque_1" xmlns="http://www.w3.org/2000/svg" xmlns:xlink="http://www.w3.org/1999/xlink" x="0px" y="0px"
	 viewBox="0 0 100 100" style="enable-background:new 0 0 100 100;" xml:space="preserve">
<style type="text/css">
	.st0{fill:none;stroke:#000000;stroke-width:3;stroke-linecap:square;}
	.st1{fill:none;stroke:#000000;stroke-width:2;stroke-linecap:square;}
	.st2{fill:none;stroke:#000000;stroke-width:2;}
	.st3{fill:none;stroke:#000000;stroke-width:0.75;}
	.st4{fill:none;stroke:#000000;stroke-width:1.2878;}
	.st5{font-family:'ArialMT';}
	.st6{font-size:16px;}
</style>
<g id="g23" transform="translate(-.111 2.446)">
	<path id="path11" class="st0" d="M21.5,5.6h57v90.2h-57V5.6z"/>
	<path id="path13" class="st1" d="M36.8,17.4h26.4v65H36.8V17.4z"/>
	<path id="path15" class="st2" d="M21,87.9H5 M79,72.1h16 M79,55.8h16 M79,38.8h16 M79,23.2h16 M5.1,72.1h16 M5.1,55.8h16 M5.1,38.8
		h16 M5.1,23.2h16 M78.9,63.7h16 M78.9,47.4h16 M78.9,30.4h16 M78.9,14.8h16 M5,63.7h16 M5,47.4h16 M5,30.4h16 M5,14.8h16"/>
	<path id="line17" class="st3" d="M36.6,35.7h26.2"/>
	<path id="line17-6" class="st3" d="M36.6,26.9h26.5"/>
	<path id="line19" class="st3" d="M36.6,53.3h26.2"/>
	<path id="line19-7" class="st3" d="M43.6,16.9v64.8"/>
	<path id="line19-7_00000120535233137707775400000013448743575286177443_" class="st3" d="M40.6,16.9v64.8"/>
	<path id="line19-7_00000099650465038057117940000000671417939356161931_" class="st3" d="M46.6,16.9v64.8"/>
	<path id="line19-7_00000121985574838128360510000001443639823958642868_" class="st3" d="M52.6,16.9v64.8"/>
	<path id="line19-7_00000000185563274560330990000014698164924354629515_" class="st3" d="M59.1,16.9v64.8"/>
	<path id="line19-7-7" class="st3" d="M55.9,17.2V82"/>
	<path id="line19-7-3" class="st3" d="M49.5,17.1v64.8"/>
	<path id="line21" class="st3" d="M36.6,70.8h26.2"/>
	<path id="line17-3" class="st3" d="M36.6,44.5h26.2"/>
	<path id="line19-9" class="st3" d="M36.6,62h26.2"/>
	<path id="line21-8" class="st3" d="M36.6,79.6h26.2"/>
	<line class="st4" x1="35.7" y1="-2.4" x2="35.7" y2="5.4"/>
	<line class="st4" x1="26" y1="-2.5" x2="26" y2="5.3"/>
	<line class="st4" x1="45.5" y1="-2.4" x2="45.5" y2="5.4"/>
	<line class="st4" x1="55.3" y1="-2.4" x2="55.3" y2="5.4"/>
	<line class="st4" x1="65" y1="-2.4" x2="65" y2="5.4"/>
	<line class="st4" x1="74.8" y1="-2.6" x2="74.8" y2="5.2"/>
	<path id="line17_00000031167400040783472790000012004540909382899357_" class="st3" d="M36.6,31.3h26.2"/>
	<path id="line17-6_00000183968010817249323380000014299075179429305754_" class="st3" d="M36.6,22.5h26.5"/>
	<path id="line19_00000175286649658340361320000004157311785138902673_" class="st3" d="M36.6,48.9h26.2"/>
	<path id="line21_00000091700558903547022670000002312494798994816168_" class="st3" d="M36.6,66.4h26.2"/>
	<path id="line17-3_00000159458382565520322500000006284873595598974130_" class="st3" d="M36.6,40.1h26.2"/>
	<path id="line19-9_00000091735904396612057190000015897752178029044919_" class="st3" d="M36.6,57.7h26.2"/>
	<path id="line21-8_00000093860171479441167250000017490902839809296002_" class="st3" d="M36.6,75.2h26.2"/>
	<path id="line17_00000006697103623142659630000011220295081413455247_" class="st3" d="M36.6,33.5h26.2"/>
	<path id="line17-6_00000026880015971800805910000003275076373947233470_" class="st3" d="M36.6,24.7h26.5"/>
	<path id="line19_00000090291936979885516000000005255577037189300399_" class="st3" d="M36.6,51.1h26.2"/>
	<path id="line21_00000177467559336918823950000007167537243635029893_" class="st3" d="M36.6,68.6h26.2"/>
	<path id="line17-3_00000180361543231064843720000005743907174206504087_" class="st3" d="M36.6,42.3h26.2"/>
	<path id="line19-9_00000072979183566539901740000005595221055172823172_" class="st3" d="M36.6,59.9h26.2"/>
	<path id="line21-8_00000147205203157594504480000004328796847316481454_" class="st3" d="M36.6,77.4h26.2"/>
	<path id="line17_00000127042267500942741140000011662101250634969014_" class="st3" d="M36.6,29.1h26.2"/>
	<path id="line17-6_00000155841811075673258000000009662907844362095783_" class="st3" d="M36.6,20.3h26.5"/>
	<path id="line19_00000036945203429007693630000001704283708142794143_" class="st3" d="M36.6,46.7h26.2"/>
	<path id="line21_00000127020263134156473570000005180125563086714038_" class="st3" d="M36.6,64.2h26.2"/>
	<path id="line17-3_00000125575279356744169370000010675498143768306062_" class="st3" d="M36.6,37.9h26.2"/>
	<path id="line19-9_00000074402539290281892480000004003230143822096522_" class="st3" d="M36.6,55.5h26.2"/>
	<path id="line21-8_00000174585536612413253130000015246261068566492326_" class="st3" d="M36.6,73h26.2"/>
</g>
<text id="text25" transform="matrix(1 0 0 1 23.699 55.7206)" class="st5 st6">D</text>
<text id="text27" transform="matrix(1 0 0 1 64.5612 55.7207)" class="st5 st6">Q</text>
<path id="path29" class="st2" d="M21,85.4l11.5,5l-11.5,5"/>
</svg>
