<?xml version="1.0" encoding="utf-8"?>
<!-- Generator: Adobe Illustrator 26.0.3, SVG Export Plug-In . SVG Version: 6.00 Build 0)  -->
<svg version="1.1" id="Layer_1" xmlns="http://www.w3.org/2000/svg" xmlns:xlink="http://www.w3.org/1999/xlink" x="0px" y="0px"
	 viewBox="0 0 100 100" style="enable-background:new 0 0 100 100;" xml:space="preserve" fill="currentColor">
<g transform="translate(0.000000,1280.000000) scale(0.100000,-0.100000)">
	<path d="M475.9,12730c-2.1-0.8-339.2-191.5-340.3-192.6c-0.4-0.4-0.3-0.9,0.3-1.5c0.5-0.5,51.6-25,113.5-54.4
		c61.9-29.5,147.6-70.2,190.3-90.5c61.1-29.1,78.5-37.1,81.1-37.4c2.8-0.3,4-0.1,7.5,1.7c3.3,1.7,318.8,200.6,331.3,208.9
		c3.9,2.6,4.7,3.6,3.9,4.9c-0.4,0.7-27,12-158.6,68c-10.5,4.5-63.2,26.8-116.9,49.7c-53.7,22.8-99.4,42.1-101.5,42.8
		C482.3,12730.9,478.9,12731,475.9,12730z M482.4,12692c25.7-3.4,43.5-15.6,43.5-29.7c0-13-15.4-25.3-37.8-30.1
		c-33.4-7.2-69.1,2-78.6,20.1c-2.4,4.5-2.4,11.2-0.3,15.7c4.2,8.4,14.4,15.8,28.5,20.3C451,12692.6,467.4,12694,482.4,12692z
		 M537.5,12470.6c28.3-2.5,48.1-14.9,48.2-30c0.1-14-15.9-26-41.4-31c-8.9-1.8-27.3-2.1-35.6-0.7c-20.3,3.5-34,11.1-39.1,21.6
		c-1.9,3.8-2.1,4.8-1.8,8.7c0.3,6,2.4,9.9,7.8,15C488.1,12466.1,513.5,12472.8,537.5,12470.6z"/>
	<path d="M875.5,12541.5c-12.7-8-299.1-189-315.1-199.1c-10-6.4-19.6-12.8-21.3-14.4l-3.2-2.8v-4.9c0-2.7,0.7-54.9,1.7-115.9
		s2.3-152.7,3-203.9c1.7-123.7,1.5-116.5,3.6-116.5c0.9,0,330.4,219.1,334.9,222.7c1.4,1.2,3,2.8,3.4,3.8
		c0.7,1.3,0.7,43.6,0.4,217.8c-0.3,191.4-0.5,216.2-1.4,216.3C880.9,12544.6,878.2,12543.3,875.5,12541.5z M852.7,12462.6
		c10.3-5,15.3-16.2,14.6-33c-1.5-32.6-26.4-67.1-52.4-72.6c-6-1.3-10.7-0.7-16,1.9c-6.5,3.1-11.3,9.9-13.5,19.1
		c-1.2,5-1,18.3,0.3,24.4c6.6,29.7,27.4,55.7,49.7,61.7C841.7,12465.7,847.2,12465.3,852.7,12462.6z M754.6,12262.5
		c6.4-3.3,11.5-10.5,13.6-19.1c0.5-2.2,0.9-7,0.9-11.9c-0.1-9.3-1.9-18.1-5.5-27.3c-7.9-20.1-22.2-36.9-37.3-44.1
		c-7-3.3-11.3-4.3-17.3-3.9c-11.2,0.8-19.2,8.7-22,21.9c-1.5,6.8-0.9,19.3,1.3,27.7c7,26.7,26.3,50.6,46.3,57.3
		C741.3,12265.3,749.7,12265.1,754.6,12262.5z M642.9,12056.5c7.4-2.2,13.2-8.1,16.1-16.4c2.1-5.8,2.6-19.9,1.1-27.7
		c-5.8-29.1-27-56.2-49-62.5c-5.8-1.7-14.2-1.1-18.6,1.1c-5.7,2.9-9.6,7.9-12.4,15.7c-1.9,5.4-2.4,18.9-0.9,26.7
		c2.3,11.8,8.3,26.2,15.5,36.3c4,5.7,13.4,15.3,18.4,18.9C623.4,12056.1,634.5,12059,642.9,12056.5z"/>
	<path d="M118.7,12510.8c0-0.9,1.2-38.1,2.6-83c5.2-160.1,6.6-204.1,8.5-265.2c2.6-83.4,2.4-79.3,4.6-81.4
		c1.9-1.9,376.6-198,378.4-198c0.6,0,1.3,0.4,1.5,0.9c0.4,1-5.4,406.4-6.1,428.7l-0.4,12.8l-2.1,2.2c-1.6,1.7-24.8,13-106.7,52
		c-57.5,27.3-143.7,68.3-191.5,91c-47.7,22.7-87.3,41.3-87.9,41.3C119.1,12512.3,118.7,12511.7,118.7,12510.8z M299.3,12246.2
		c8.1-2.8,14.8-7.2,22.8-15.2c22.6-22.5,32.6-57.2,22.6-78.5c-11.9-25.2-46.5-17.1-68.5,15.9c-19.1,28.7-20.1,63.5-2.3,75.6
		c4.7,3.2,7.6,4,14,4C292.8,12248.1,294.8,12247.8,299.3,12246.2z"/>
</g>
</svg>
