<?xml version="1.0" encoding="utf-8"?>
<!-- Generator: Adobe Illustrator 26.0.3, SVG Export Plug-In . SVG Version: 6.00 Build 0)  -->
<svg version="1.1" id="Layer_1" xmlns="http://www.w3.org/2000/svg" xmlns:xlink="http://www.w3.org/1999/xlink" x="0px" y="0px" viewBox="0 0 100 100" style="enable-background:new 0 0 100 100;" xml:space="preserve" fill="currentColor">
	<path fill="#888888" fill-opacity="0.3" d="M78.1,86.4H21.2c-4.4,0-8-3.6-8-8V21.6c0-4.4,3.6-8,8-8h56.9c4.4,0,8,3.6,8,8v56.9
		C86.1,82.9,82.5,86.4,78.1,86.4z" />
	<path d="M78.1,88.4H21.2c-5.5,0-10-4.5-10-10V21.6c0-5.5,4.5-10,10-10h56.9c5.5,0,10,4.5,10,10v56.9C88.1,84,83.6,88.4,78.1,88.4z
		 M21.2,15.6c-3.3,0-6,2.7-6,6v56.8c0,3.3,2.7,6,6,6h56.9c3.3,0,6-2.6,6-5.9V21.6c0-3.3-2.7-6-6-6H21.2z" />
</svg>