<?xml version="1.0" encoding="utf-8"?>
<!-- Generator: Adobe Illustrator 26.0.3, SVG Export Plug-In . SVG Version: 6.00 Build 0)  -->
<svg version="1.1" id="Calque_1" xmlns="http://www.w3.org/2000/svg" xmlns:xlink="http://www.w3.org/1999/xlink" x="0px" y="0px"
	 viewBox="0 0 100 100" style="enable-background:new 0 0 100 100;" xml:space="preserve">
<style type="text/css">
	.st0{fill:none;stroke:#000000;stroke-width:3;stroke-linecap:square;}
	.st1{fill:none;stroke:#000000;stroke-width:2;stroke-linecap:square;}
	.st2{fill:none;stroke:#000000;stroke-width:2;}
	.st3{fill:none;stroke:#000000;stroke-width:1.5;}
	.st4{font-family:'ArialMT';}
	.st5{font-size:16px;}
</style>
<path class="st0" d="M21.5,3.9h57v93.8h-57V3.9z"/>
<path class="st1" d="M41.7,17.4h18.1v65H41.7V17.4z"/>
<path class="st2" d="M21,89.9H5 M79,70.3h16 M79,54h16 M79,37h16 M79,21.4h16 M79,78.4h16 M79,62.1h16 M79,45.1h16 M79,29.5h16
	 M5.1,70.3h16 M5.1,54h16 M5.1,37h16 M5.1,21.4h16 M5.1,78.2h16 M5.1,61.9h16 M5.1,44.9h16 M5.1,29.3h16"/>
<line class="st3" x1="41.7" y1="34.4" x2="59.6" y2="34.4"/>
<line class="st3" x1="41.7" y1="26.1" x2="59.6" y2="26.1"/>
<line class="st3" x1="41.7" y1="50.7" x2="59.6" y2="50.7"/>
<line class="st3" x1="41.7" y1="66.6" x2="59.6" y2="66.6"/>
<line class="st3" x1="41.7" y1="42.3" x2="59.6" y2="42.3"/>
<line class="st3" x1="41.7" y1="58.6" x2="59.6" y2="58.6"/>
<line class="st3" x1="41.7" y1="74.5" x2="59.6" y2="74.5"/>
<text transform="matrix(1 0 0 1 25.1107 50.3967)" class="st4 st5">D</text>
<text transform="matrix(1 0 0 1 62.8885 50.3878)" class="st4 st5">Q</text>
<path class="st2" d="M21.1,85l11.5,5l-11.5,5"/>
</svg>
