<?xml version="1.0" encoding="utf-8"?>
<!-- Generator: Adobe Illustrator 26.5.3, SVG Export Plug-In . SVG Version: 6.00 Build 0)  -->
<svg version="1.1" id="Calque_1" xmlns="http://www.w3.org/2000/svg" xmlns:xlink="http://www.w3.org/1999/xlink" x="0px" y="0px" viewBox="0 0 100 100" style="enable-background:new 0 0 100 100;" xml:space="preserve" fill="currentColor">
	<path d="M63.6,18.8H36.5v67h27.1V18.8z M56.4,29.2h5.1v7h-5.1V29.2z M56.4,45.3h5.1v7.2h-5.1V45.3z M38.4,20.8h4.4v7h-4.4V20.8z
		 M38.4,29.2h4.4v7h-4.4V29.2z M42.9,83.8h-4.4v-6.3h4.4V83.8z M42.9,76.2h-4.4v-6.5h4.4V76.2z M42.9,68.4h-4.4v-6.8h4.4V68.4z
		 M42.9,60.3h-4.4v-6.5h4.4V60.3z M42.9,52.5h-4.4v-7.2h4.4V52.5z M42.9,44h-4.4v-6.5h4.4V44z M48.7,83.8h-4.6v-6.3h4.6V83.8z
		 M48.7,76.2h-4.6v-6.5h4.6V76.2z M48.7,68.4h-4.6v-6.8h4.6V68.4z M48.7,60.3h-4.6v-6.5h4.6V60.3z M48.7,52.5h-4.6v-7.2h4.6V52.5z
		 M48.7,44h-4.6v-6.5h4.6V44z M48.7,36.2h-4.6v-7h4.6V36.2z M48.7,27.9h-4.6v-7h4.6V27.9z M55.1,83.8H50v-6.3h5.1V83.8z M55.1,76.2
		H50v-6.5h5.1V76.2z M55.1,68.4H50v-6.8h5.1V68.4z M55.1,60.3H50v-6.5h5.1V60.3z M55.1,52.5H50v-7.2h5.1V52.5z M55.1,44H50v-6.5h5.1
		V44z M55.1,36.2H50v-7h5.1V36.2z M55.1,27.9H50v-7h5.1V27.9z M61.5,83.8h-5.1v-6.3h5.1V83.8z M61.5,76.2h-5.1v-6.5h5.1V76.2z
		 M61.5,68.4h-5.1v-6.8h5.1V68.4z M61.6,60.3h-5.1v-6.5h5.1V60.3z M61.6,44h-5.1v-6.5h5.1V44z M61.6,27.9h-5.1v-7h5.1V27.9z" />
	<path d="M94.9,24.8v-2h-15V6.5H73V0h-1.3v6.5h-12V0h-1.3v6.5H45.2V0h-1.3v6.5H31.3V0H30v6.5H19.9v16.3v2v13.6v2v15v2v14.3v2v15.6v2
		v8.4h60v-26h15v-2h-15V57.4h15v-2h-15v-15h15v-2h-15V24.8H94.9z M76.9,96.7h-54v-1.1V85.1V9.5h54V96.7z" />
</svg>