<?xml version="1.0" encoding="utf-8"?>
<!-- Generator: Adobe Illustrator 26.0.3, SVG Export Plug-In . SVG Version: 6.00 Build 0)  -->
<svg version="1.1" id="Calque_1" xmlns="http://www.w3.org/2000/svg" xmlns:xlink="http://www.w3.org/1999/xlink" x="0px" y="0px" viewBox="0 0 100 100" style="enable-background:new 0 0 100 100;" xml:space="preserve" fill="currentColor">
	<path d="M60.8,83.4H40.7v-67h20.1V83.4z M42.7,81.4h16.1v-63H42.7V81.4z" />
	<path d="M26.3,42.2V30.8h3.9c0.9,0,1.6,0.1,2,0.2c0.7,0.2,1.2,0.4,1.7,0.8c0.6,0.5,1.1,1.2,1.4,2c0.3,0.8,0.4,1.7,0.4,2.7
		c0,0.9-0.1,1.6-0.3,2.3S35,40,34.7,40.4c-0.3,0.4-0.7,0.8-1,1c-0.4,0.3-0.8,0.4-1.4,0.6c-0.5,0.1-1.1,0.2-1.8,0.2H26.3z M27.9,40.9
		h2.4c0.8,0,1.3-0.1,1.8-0.2s0.8-0.3,1-0.6c0.4-0.4,0.6-0.8,0.8-1.4c0.2-0.6,0.3-1.3,0.3-2.2c0-1.2-0.2-2.1-0.6-2.8
		c-0.4-0.6-0.9-1.1-1.4-1.3c-0.4-0.2-1.1-0.2-2-0.2h-2.4V40.9z" />
	<path d="M26.3,79V67.6h1.5v10.1h3.6V79H26.3z" />
	<path d="M32.3,79V67.6h2.1c1,0,1.3,0.1,1.9,0.3s1,0.6,1.3,1.1s0.5,1.1,0.5,1.7c0,0.8-0.3,1.5-0.8,2.1s-0.9,0.9-2,1.1
	c0.4,0.2,0.7,0.4,0.9,0.6c0.4,0.4,0.5,0.8,0.8,1.5l1.2,3.1h-1.9l-0.7-2.4c-0.2-0.8-0.3-1.2-0.6-1.6s-0.5-0.6-0.8-0.8
	S33.6,74,33.4,74c-0.2,0-0.5-0.1-0.8-0.1h1.2V79H32.3z M33.8,72.6H34c0.7,0,0.8-0.1,1.2-0.2s0.7-0.4,0.9-0.7s0.3-0.7,0.3-1
	c0-0.5-0.2-1-0.6-1.3c-0.4-0.3-0.6-0.5-1.4-0.5h-0.6C33.8,68.9,33.8,72.6,33.8,72.6z" />
	<path d="M72.8,49.2c0.7,0.5,1.4,0.8,1.9,1.1l-0.4,1.1c-0.8-0.3-1.6-0.8-2.5-1.4c-0.8,0.5-1.8,0.7-2.8,0.7c-1,0-2-0.2-2.8-0.8
		s-1.5-1.2-1.9-2.1c-0.5-0.9-0.7-1.9-0.7-3.1c0-1.1,0.2-2.2,0.7-3.1c0.5-0.9,1.1-1.6,2-2.1c0.8-0.5,1.8-0.7,2.8-0.7
		c1.1,0,2,0.3,2.9,0.8c0.8,0.5,1.5,1.2,1.9,2.1s0.7,1.9,0.7,3.1c0,0.9-0.1,1.8-0.4,2.5C73.8,47.9,73.4,48.6,72.8,49.2z M69.5,47.2
		c0.9,0.2,1.6,0.6,2.2,1.1c0.9-0.8,1.3-2,1.3-3.7c0-0.9-0.2-1.7-0.5-2.4c-0.3-0.7-0.8-1.2-1.4-1.6c-0.6-0.4-1.3-0.6-2-0.6
		c-1.1,0-2.1,0.4-2.8,1.2c-0.7,0.8-1.1,1.9-1.1,3.5c0,1.5,0.4,2.6,1.1,3.4c0.7,0.8,1.7,1.2,2.8,1.2c0.5,0,1.1-0.1,1.5-0.3
		c-0.5-0.3-1-0.5-1.5-0.7L69.5,47.2z" />
	<path d="M95,22.4v-2H80v-18H20V36H5.1v2H20v34.6H5.1v2H20v14.3H5v2h15v8.3h60V71.3h15v-2H80V55h15v-2H80V38.7h15v-2H80V22.4H95z
	 M23,86.9l7.1,3.1L23,93.1V86.9z M77,96.2H23v-0.9L35.1,90L23,84.7V5.4h54V96.2z" />
	<polygon points="56,52.3 54.6,53.3 54.6,39.2 52.6,39.2 52.6,54.7 50.9,56 49,54.7 49,39.2 47,39.2 47,53.3 45.5,52.3 44.3,53.9 
	50.9,58.4 57.2,53.9 " />
	<rect x="26.2" y="65.9" width="5.1" height="1" />
</svg>