<?xml version="1.0" encoding="utf-8"?>
<!-- Generator: Adobe Illustrator 26.0.3, SVG Export Plug-In . SVG Version: 6.00 Build 0)  -->
<svg version="1.1" id="Calque_1" xmlns="http://www.w3.org/2000/svg" xmlns:xlink="http://www.w3.org/1999/xlink" x="0px" y="0px"
	 viewBox="0 0 100 100" style="enable-background:new 0 0 100 100;" xml:space="preserve">
<style type="text/css">
	.st0{fill:none;stroke:#000000;stroke-width:3;stroke-linecap:square;}
	.st1{fill:none;stroke:#000000;stroke-width:2;stroke-linecap:square;}
	.st2{fill:none;stroke:#000000;stroke-width:2;}
	.st3{font-family:'ArialMT';}
	.st4{font-size:16px;}
	.st5{enable-background:new    ;}
</style>
<path class="st0" d="M21.5,3.9h57v93.8h-57V3.9z"/>
<path class="st1" d="M41.7,17.4h18.1v65H41.7V17.4z"/>
<path class="st2" d="M21,89.9H5 M79,70.3h16 M79,54h16 M79,37h16 M79,21.4h16 M5.1,73.6h16 M5.1,37h16"/>
<text transform="matrix(1 0 0 1 25.1107 42.209)" class="st3 st4">D</text>
<g class="st5">
	<path d="M26.3,79V67.6h1.5v10.1h3.6V79H26.3z"/>
	<path d="M32.3,79V67.6h2.1c1,0,1.3,0.1,1.9,0.3s1,0.6,1.3,1.1c0.3,0.5,0.5,1.1,0.5,1.7c0,0.8-0.3,1.5-0.8,2.1
		c-0.5,0.6-0.9,0.9-2,1.1c0.4,0.2,0.7,0.4,0.9,0.6c0.4,0.4,0.5,0.8,0.8,1.5l1.2,3.1h-1.9l-0.7-2.4c-0.2-0.8-0.3-1.2-0.6-1.6
		c-0.3-0.4-0.5-0.6-0.8-0.8S33.6,74,33.4,74c-0.2,0-0.5-0.1-0.8-0.1h1.2V79H32.3z M33.8,72.6H34c0.7,0,0.8-0.1,1.2-0.2
		s0.7-0.4,0.9-0.7s0.3-0.7,0.3-1c0-0.5-0.2-1-0.6-1.3c-0.4-0.3-0.6-0.5-1.4-0.5h-0.6V72.6z"/>
</g>
<text transform="matrix(1 0 0 1 62.8885 50.3878)" class="st3 st4">Q</text>
<path class="st2" d="M21.1,85l11.5,5l-11.5,5"/>
<g>
	<line class="st2" x1="48" y1="39.2" x2="48" y2="55.2"/>
	<line class="st2" x1="53.6" y1="39.2" x2="53.6" y2="55.2"/>
	<polyline class="st2" points="56.6,53.1 50.9,57.2 44.9,53.1 	"/>
</g>
</svg>
