<?xml version="1.0" encoding="utf-8"?>
<!-- Generator: Adobe Illustrator 26.0.3, SVG Export Plug-In . SVG Version: 6.00 Build 0)  -->
<svg version="1.1" id="Layer_1" xmlns="http://www.w3.org/2000/svg" xmlns:xlink="http://www.w3.org/1999/xlink" x="0px" y="0px"
	 viewBox="0 0 100 100" style="enable-background:new 0 0 100 100;" xml:space="preserve" fill="currentColor">
<path d="M88.4,26.1v-2H73.2V11.9H51.8V4.6h-2v7.3H28.4v12.2H13.2v2h15.2v14.2H13.2v2h15.2v14.2H13.2v2h15.2v14.2H13.2v2h15.2v12.1
	h44.8V74.7h15.2v-2H73.2V58.5h15.2v-2H73.2V42.3h15.2v-2H73.2V26.1H88.4z M70.2,83.8H31.4V14.9h18.4v28.5l-13-6.9v27.7l23.4-13.4
	c0.4,1.5,1.7,2.6,3.3,2.6c1.8,0,3.4-1.6,3.4-3.4c0-1.8-1.4-3.3-3.4-3.4c-1.5,0-2.8,1-3.2,2.4l-8.5-4.5V14.9h18.4V83.8z M57.7,49.9
	L38.8,60.8V39.9L57.7,49.9z M62.1,50c0-0.7,0.7-1.4,1.3-1.4c0.9,0.1,1.5,0.6,1.5,1.4c0,0.7-0.7,1.4-1.4,1.4S62.1,50.7,62.1,50z"/>
</svg>
