<?xml version="1.0" encoding="utf-8"?>
<!-- Generator: Adobe Illustrator 26.0.3, SVG Export Plug-In . SVG Version: 6.00 Build 0)  -->
<svg version="1.1" id="Layer_1" xmlns="http://www.w3.org/2000/svg" xmlns:xlink="http://www.w3.org/1999/xlink" x="0px" y="0px"
	 viewBox="0 0 100 100" style="enable-background:new 0 0 100 100;" xml:space="preserve" fill="currentColor">
<path d="M88.4,26.1v-2H73.2V11.9H51.8V5.5h-2v6.4H28.4v12.2H13.2v2h15.2v14.2H13.2v2h15.2v14.2H13.2v2h15.2v14.2H13.2v2h15.2v12.1
	h44.8V74.7h15.2v-2H73.2V58.5h15.2v-2H73.2V42.3h15.2v-2H73.2V26.1H88.4z M70.2,83.8H31.4V14.9h18.4v27l-10-5.3v27.7l25.1-14.4
	l-13.1-7v-28h18.4V83.8z M60.7,49.9L41.8,60.8V39.9L60.7,49.9z"/>
</svg>
