<?xml version="1.0" encoding="utf-8"?>
<!-- Generator: Adobe Illustrator 26.0.3, SVG Export Plug-In . SVG Version: 6.00 Build 0)  -->
<svg version="1.1" id="Layer_1" xmlns="http://www.w3.org/2000/svg" xmlns:xlink="http://www.w3.org/1999/xlink" x="0px" y="0px"
	 viewBox="0 0 100 50" style="enable-background:new 0 0 100 50;" xml:space="preserve" fill="currentColor">
<path d="M95,24H80.4c-0.5-2.6-2.7-4.5-5.4-4.5c-1.7,0-3.1,0.7-4.1,1.9C60.5,5.2,45.8,5,41.2,5H24.1l2,2.4c0,0,1.9,2.4,3.6,6.6h-2.6
	c-0.9-2.5-2-4.6-2.9-6c-0.8-1.3-1.4-2.1-2.2-3h-3.7l2,2.4c0,0,1.9,2.4,3.6,6.6H5v2h19.6c0.8,2.6,1.4,5.6,1.4,9c0,3.4-0.6,6.4-1.4,9
	H5v2h18.9c-1.6,4.1-3.6,6.6-3.6,6.6l-2,2.4H22c0,0,0.7-0.4,2.2-3c0.9-1.4,1.9-3.5,2.8-6h2.6c-1.6,4.1-3.6,6.6-3.6,6.6l-2,2.4h17.2
	c2.4,0,7.7,0,13.6-2.4c5.3-2.2,11.1-6.3,16-14c1,1.2,2.5,1.9,4.1,1.9c2.7,0,4.9-1.9,5.4-4.5H95V24z M27.7,34c0.7-2.6,1.3-5.6,1.3-9
	c0-3.4-0.5-6.4-1.3-9h2.6c0.8,2.6,1.4,5.6,1.4,9c0,3.4-0.6,6.4-1.4,9H27.7z M53.5,39.8C48.1,42,43.7,42,41.2,42H30
	c1.9-3.1,4.8-9,4.8-17c0-8-2.9-13.9-4.8-17h11.3c4.7,0,18.3-0.1,28,17C64.5,33.4,58.7,37.7,53.5,39.8z M75,27.5
	c-1.4,0-2.5-1.1-2.5-2.5c0-1.4,1.1-2.5,2.5-2.5s2.5,1.1,2.5,2.5C77.5,26.4,76.4,27.5,75,27.5z"/>
</svg>
