<?xml version="1.0" encoding="utf-8"?>
<!-- Generator: Adobe Illustrator 22.1.0, SVG Export Plug-In . SVG Version: 6.00 Build 0)  -->
<svg version="1.1" id="Calque_1" xmlns="http://www.w3.org/2000/svg" xmlns:xlink="http://www.w3.org/1999/xlink" x="0px" y="0px"
	 viewBox="0 0 100 50" style="enable-background:new 0 0 100 50;" xml:space="preserve">
<style type="text/css">
	.st0{fill:none;stroke:#000000;stroke-width:2;}
	.st1{fill:none;stroke:#000000;stroke-width:3;}
</style>
<path class="st0" d="M78.3,25H95 M29.7,10H5 M32,30H5 M32.3,19.9H5 M29.4,39.9H5"/>
<g>
	<path d="M24.2,42c-1.6,2.6-2.2,3-2.2,3h-3.7l2-2.4c0,0,5.7-7,5.7-17.6c0-10.6-5.7-17.6-5.7-17.6l-2-2.4H22c0.8,0.9,1.4,1.7,2.2,3
		c1.9,3.1,4.8,9,4.8,17C29,33,26.1,38.9,24.2,42z"/>
	<path d="M24.1,5l2,2.4c0,0,5.7,7,5.7,17.6s-5.7,17.6-5.7,17.6l-2,2.4h17.2c2.4,0,7.7,0,13.6-2.4s12.5-7.3,17.7-16.9L71.2,25
		l1.3-0.7C62.3,5.2,46,5,41.2,5H24.1z M30,8h11.3c4.7,0,18.3-0.1,28,17c-4.8,8.4-10.5,12.7-15.7,14.8C48.1,42,43.7,42,41.2,42H30
		c1.9-3.1,4.8-9,4.8-17C34.8,17,31.8,11.1,30,8z"/>
</g>
<path class="st1" d="M79,25c0,2.2-1.8,4-4,4s-4-1.8-4-4s1.8-4,4-4S79,22.8,79,25z"/>
</svg>
