<svg xmlns="http://www.w3.org/2000/svg" width="100" height="50"><path fill="none" stroke="#000" stroke-width="2" d="M78.333 25H95M30.386 15H5m26.362 20H5"/><g fill-rule="evenodd"><path d="M24.25 42C22.653 44.644 22 45 22 45h-3.656l2-2.437S26 35.563 26 25c0-10.562-5.656-17.563-5.656-17.563l-2-2.437H22c.781.938 1.422 1.656 2.219 3C26.09 11.1 29 17.027 29 25c0 7.95-2.897 13.88-4.75 17z"/><path d="M24.094 5l2 2.438s5.656 7 5.656 17.562-5.656 17.563-5.656 17.563l-2 2.437H41.25c2.408 0 7.69.025 13.625-2.406s12.537-7.344 17.688-16.875L71.25 25l1.313-.719C62.258 5.216 46.007 5 41.25 5H24.094zm5.875 3H41.25c4.684 0 18.287-.13 27.969 17-4.767 8.43-10.522 12.684-15.719 14.813C48.14 42.008 43.658 42 41.25 42H30c1.874-3.108 4.75-9.05 4.75-17 0-7.973-2.909-13.9-4.781-17z"/></g><path fill="none" stroke="#000" stroke-width="3" d="M79 25a4 4 0 1 1-8 0 4 4 0 1 1 8 0z"/></svg>