<?xml version="1.0" encoding="utf-8"?>
<!-- Generator: Adobe Illustrator 26.0.3, SVG Export Plug-In . SVG Version: 6.00 Build 0)  -->
<svg version="1.1" id="Calque_1" xmlns="http://www.w3.org/2000/svg" xmlns:xlink="http://www.w3.org/1999/xlink" x="0px" y="0px"
	 viewBox="0 0 100 50" style="enable-background:new 0 0 100 50;" xml:space="preserve" fill="currentColor">
<path d="M95,24H80.4c-0.5-2.6-2.7-4.5-5.4-4.5c-1.7,0-3.2,0.8-4.2,1.9C60.6,5.2,45.7,5,41.2,5H24.1l2,2.4c0,0,0.5,0.6,1.1,1.6h-2.4
	c-0.2-0.4-0.4-0.7-0.6-1c-0.8-1.3-1.4-2.1-2.2-3h-3.7l2,2.4c0,0,0.5,0.6,1.1,1.6H5v2h17.5c1,2,2.1,4.6,2.8,7.9H5v2h20.7
	c0.2,1.3,0.3,2.7,0.3,4.1c0,1.4-0.1,2.7-0.3,4H5v2h20.4c-0.7,3.2-1.8,5.9-2.8,7.9H5v2h16.5c-0.7,1.1-1.2,1.7-1.2,1.7l-2,2.4H22
	c0,0,0.6-0.4,2.2-3c0.2-0.3,0.4-0.7,0.6-1.1h2.4c-0.7,1.1-1.2,1.7-1.2,1.7l-2,2.4h17.2c2.4,0,7.7,0,13.6-2.4c5.3-2.1,11.1-6.3,16-14
	c1,1.1,2.5,1.9,4.1,1.9c2.7,0,4.9-1.9,5.4-4.5H95V24z M25.8,11h2.5c1,2,2.1,4.6,2.8,7.9h-2.7C27.8,15.8,26.8,13.1,25.8,11z
	 M28.7,20.9h2.8c0.2,1.3,0.3,2.7,0.3,4.1c0,1.4-0.1,2.7-0.3,4h-2.8c0.2-1.3,0.2-2.6,0.2-4C29,23.6,28.9,22.2,28.7,20.9z M25.9,38.9
	c1-2.1,2-4.8,2.6-7.9h2.7c-0.7,3.2-1.8,5.9-2.8,7.9H25.9z M53.6,39.8C48.1,42,43.7,42,41.2,42H30c1.9-3.1,4.8-9,4.8-17
	s-3-13.9-4.8-17h11.3c4.7,0,18.3-0.1,28,17C64.5,33.4,58.8,37.7,53.6,39.8z M75,27.5c-1.4,0-2.5-1.1-2.5-2.5c0-1.4,1.1-2.5,2.5-2.5
	s2.5,1.1,2.5,2.5C77.5,26.4,76.4,27.5,75,27.5z"/>
</svg>
