<?xml version="1.0" encoding="utf-8"?>
<!-- Generator: Adobe Illustrator 26.0.3, SVG Export Plug-In . SVG Version: 6.00 Build 0)  -->
<svg version="1.1" id="Calque_1" xmlns="http://www.w3.org/2000/svg" xmlns:xlink="http://www.w3.org/1999/xlink" x="0px" y="0px"
	 viewBox="0 0 100 50" style="enable-background:new 0 0 100 50;" xml:space="preserve" fill="currentColor">
<path d="M95,24H72.3C62.1,5.2,46,5,41.2,5H24.1l2,2.4c0,0,2,2.4,3.6,6.6h-2.6c-0.9-2.5-2-4.6-2.9-6c-0.8-1.3-1.4-2.1-2.2-3h-3.7
	l2,2.4c0,0,2,2.4,3.6,6.6H5v2h19.6c0.7,2.2,1.2,4.9,1.4,7.8H5v2h21c-0.1,3.1-0.6,5.9-1.4,8.2H5v2h18.9c-1.6,4.2-3.6,6.6-3.6,6.6
	l-2,2.4H22c0,0,0.6-0.4,2.2-3c0.9-1.4,2-3.5,2.9-6h2.6c-1.6,4.2-3.6,6.6-3.6,6.6l-2,2.4h17.2c2.4,0,7.7,0,13.6-2.4
	c5.8-2.4,12.4-7.2,17.5-16.6H95V24z M27.7,16h2.7v0c0.7,2.3,1.2,4.9,1.4,7.8H29C28.9,20.9,28.4,18.3,27.7,16z M27.7,34
	c0.7-2.4,1.2-5.1,1.3-8.2h2.8c-0.1,3.1-0.6,5.9-1.4,8.2H27.7z M53.6,39.8C48.1,42,43.7,42,41.2,42H30c1.9-3.1,4.8-9,4.8-17
	s-3-13.9-4.8-17h11.3c4.7,0,18.3-0.1,28,17C64.5,33.4,58.8,37.7,53.6,39.8z"/>
</svg>
