<svg viewBox="0 96 960 960"><path d="M744 912q-41 0-72-24t-42-60H396q-55 0-93.5-38.5T264 696q0-55 38.5-93.5T396 564h120q34.65 0 59.325-24.748Q600 514.504 600 479.752 600 445 575.325 420.5T516 396H330q-11 36-42 60t-72 24q-50 0-85-35t-35-85q0-50 35-85t85-35q41 0 72 24t42 60h186q65 0 110.5 45.5T672 480q0 65-45.5 110.5T516 636H396q-24.75 0-42.375 17.677T336 696.177Q336 721 353.625 738.5T396 756h234q11-36 42-60t72-24q50 0 85 35t35 85q0 50-35 85t-85 35ZM216 408q20.4 0 34.2-13.8Q264 380.4 264 360q0-20.4-13.8-34.2Q236.4 312 216 312q-20.4 0-34.2 13.8Q168 339.6 168 360q0 20.4 13.8 34.2Q195.6 408 216 408Z" transform="rotate(180 480 590)"/></svg>