<svg viewBox="0 0 20 20"><path d="M3,7.6c0.3,0.3,0.6,0.5,0.9,0.6c0.4,0.2,0.7,0.2,1.1,0.2s0.8-0.1,1.1-0.2c0.4-0.2,0.7-0.4,0.9-0.6C7.4,7.3,7.6,7,7.8,6.7
		c0,0,0-0.1,0-0.1h9.8v-2H7.8c0,0,0-0.1,0-0.1C7.6,4,7.4,3.7,7.1,3.5C6.9,3.2,6.6,3,6.2,2.8c-0.7-0.3-1.6-0.3-2.3,0
		C3.6,3,3.3,3.2,3,3.5C2.8,3.7,2.5,4,2.4,4.4C2.2,4.7,2.2,5.1,2.2,5.5c0,0.4,0.1,0.8,0.2,1.1C2.5,7,2.8,7.3,3,7.6z M3.5,4.9
		c0.1-0.2,0.2-0.4,0.4-0.5C4,4.2,4.2,4,4.4,3.9c0.2-0.1,0.4-0.1,0.7-0.1s0.5,0,0.7,0.1C6,4,6.1,4.2,6.3,4.3c0.2,0.2,0.3,0.3,0.4,0.5
		c0.1,0.2,0.1,0.4,0.1,0.7c0,0.2,0,0.5-0.1,0.7C6.6,6.4,6.5,6.6,6.3,6.7C6.1,6.9,6,7,5.7,7.1c-0.4,0.2-0.9,0.2-1.3,0
		C4.2,7,4,6.9,3.9,6.7C3.7,6.6,3.6,6.4,3.5,6.2C3.4,6,3.4,5.8,3.4,5.5C3.4,5.3,3.4,5.1,3.5,4.9z"/><path d="M17.6,13.5H7.8c0,0,0-0.1,0-0.1c-0.2-0.4-0.4-0.7-0.6-0.9s-0.6-0.5-0.9-0.6c-0.7-0.3-1.6-0.3-2.3,0
		c-0.3,0.2-0.7,0.4-0.9,0.6c-0.3,0.3-0.5,0.6-0.6,0.9c-0.2,0.4-0.2,0.7-0.2,1.1c0,0.4,0.1,0.8,0.2,1.1C2.5,16,2.8,16.3,3,16.5
		c0.3,0.3,0.6,0.5,0.9,0.6c0.4,0.2,0.7,0.2,1.1,0.2s0.8-0.1,1.1-0.2c0.3-0.2,0.7-0.4,0.9-0.6c0.3-0.3,0.5-0.6,0.6-0.9
		c0,0,0-0.1,0-0.1h9.8V13.5z M6.7,15.1c-0.1,0.2-0.2,0.4-0.4,0.5C6.1,15.8,6,16,5.7,16c-0.4,0.2-0.9,0.2-1.3,0
		C4.2,16,4,15.8,3.9,15.7c-0.2-0.2-0.3-0.3-0.4-0.5c-0.1-0.2-0.1-0.4-0.1-0.7c0-0.2,0-0.5,0.1-0.7c0.1-0.2,0.2-0.4,0.4-0.5
		C4,13.1,4.2,13,4.4,12.9c0.2-0.1,0.4-0.1,0.7-0.1s0.5,0,0.7,0.1C6,13,6.1,13.1,6.3,13.2c0.2,0.2,0.3,0.3,0.4,0.5
		c0.1,0.2,0.1,0.4,0.1,0.7C6.8,14.7,6.8,14.9,6.7,15.1z"/></svg>