<svg viewBox="0 0 20 20"><path d="M2.1,8.2H0.6V6.8h0.1c0.5,0,0.9-0.1,1.1-0.4c0.3-0.3,0.5-0.7,0.5-1.3h1.1v10.4H2.1V8.2z"/><path d="M5.3,8.6c0-0.7,0.1-1.3,0.3-1.8c0.1-0.5,0.4-0.9,0.7-1.2c0.3-0.3,0.7-0.5,1.2-0.5c0.4,0,0.8,0.1,1.1,0.3
		C8.8,5.6,9,5.9,9.2,6.3c0.2,0.4,0.3,0.9,0.4,1.6c0.1,0.6,0.1,1.4,0.1,2.3c0,0.7,0,1.4,0,2.1c0,0.7-0.1,1.3-0.3,1.8
		c-0.1,0.5-0.4,0.9-0.7,1.2c-0.3,0.3-0.7,0.4-1.2,0.4c-0.4,0-0.8-0.1-1.1-0.2c-0.3-0.2-0.5-0.4-0.7-0.8c-0.2-0.4-0.3-0.9-0.4-1.6
		c-0.1-0.6-0.1-1.4-0.1-2.3C5.2,10,5.2,9.3,5.3,8.6z M6.7,12.7c0,0.4,0.1,0.7,0.1,1C6.9,14,6.9,14.1,7,14.2c0.1,0.1,0.2,0.1,0.4,0.1
		c0.2,0,0.3-0.1,0.4-0.2C7.9,14.1,8,13.9,8,13.6c0.1-0.3,0.1-0.6,0.1-1.1c0-0.4,0-1,0-1.7V9.7c0-0.7,0-1.2,0-1.6
		c0-0.4-0.1-0.7-0.1-1C8,6.9,7.9,6.8,7.8,6.7C7.7,6.6,7.6,6.5,7.4,6.5C7.3,6.5,7.1,6.6,7,6.7C6.9,6.8,6.9,7,6.8,7.3
		C6.7,7.5,6.7,7.9,6.7,8.3c0,0.4,0,1,0,1.7v1.1C6.6,11.8,6.7,12.3,6.7,12.7z"/><path d="M11.6,8.2h-1.4V6.8h0.1c0.5,0,0.9-0.1,1.1-0.4c0.3-0.3,0.5-0.7,0.5-1.3h1.1v10.4h-1.4V8.2z"/><path d="M14.8,8.6c0-0.7,0.1-1.3,0.3-1.8s0.4-0.9,0.7-1.2c0.3-0.3,0.7-0.5,1.2-0.5c0.4,0,0.8,0.1,1.1,0.3c0.3,0.2,0.5,0.5,0.7,0.9
		c0.2,0.4,0.3,0.9,0.4,1.6c0.1,0.6,0.1,1.4,0.1,2.3c0,0.7,0,1.4,0,2.1c0,0.7-0.1,1.3-0.3,1.8c-0.1,0.5-0.4,0.9-0.7,1.2
		c-0.3,0.3-0.7,0.4-1.2,0.4c-0.4,0-0.8-0.1-1.1-0.2c-0.3-0.2-0.5-0.4-0.7-0.8c-0.2-0.4-0.3-0.9-0.4-1.6c-0.1-0.6-0.1-1.4-0.1-2.3
		C14.8,10,14.8,9.3,14.8,8.6z M16.3,12.7c0,0.4,0.1,0.7,0.1,1c0.1,0.2,0.1,0.4,0.2,0.5c0.1,0.1,0.2,0.1,0.4,0.1
		c0.2,0,0.3-0.1,0.4-0.2c0.1-0.1,0.2-0.3,0.2-0.6c0.1-0.3,0.1-0.6,0.1-1.1c0-0.4,0-1,0-1.7V9.7c0-0.7,0-1.2,0-1.6
		c0-0.4-0.1-0.7-0.1-1c-0.1-0.2-0.1-0.4-0.2-0.5c-0.1-0.1-0.2-0.1-0.4-0.1c-0.2,0-0.3,0.1-0.4,0.2c-0.1,0.1-0.2,0.3-0.2,0.6
		c-0.1,0.3-0.1,0.6-0.1,1.1c0,0.4,0,1,0,1.7v1.1C16.2,11.8,16.2,12.3,16.3,12.7z"/></svg>