<svg viewBox="0 0 20 20"><path d="M12.6,6.6c0.2,0.4,0.4,0.7,0.7,1c0.2,0.2,0.6,0.4,0.9,0.6c0.3,0.1,0.7,0.2,1.1,0.2c0.4,0,0.8-0.1,1-0.3
		c0.3-0.1,0.6-0.3,0.9-0.6c0.2-0.2,0.4-0.6,0.6-0.9C17.9,6.3,18,5.9,18,5.5s0-0.8-0.2-1.1c-0.1-0.3-0.4-0.7-0.6-0.9
		s-0.6-0.4-0.9-0.6c-0.3-0.1-0.7-0.2-1.1-0.2c-0.4,0-0.8,0-1.1,0.2c-0.3,0.1-0.7,0.4-0.9,0.6s-0.4,0.6-0.6,0.9c0,0,0,0.1,0,0.1H2.8
		v2L12.6,6.6C12.6,6.5,12.6,6.6,12.6,6.6z"/><path d="M17.9,13.4c-0.1-0.3-0.4-0.7-0.6-0.9s-0.6-0.4-0.9-0.6c-0.3-0.1-0.7-0.2-1.1-0.2c-0.4,0-0.8,0.1-1.1,0.2
		c-0.3,0.1-0.7,0.4-0.9,0.6s-0.5,0.6-0.6,0.9c0,0,0,0.1,0,0.1H2.8v2h9.9c0,0,0,0.1,0,0.1c0.1,0.3,0.4,0.7,0.6,0.9s0.6,0.4,0.9,0.6
		c0.3,0.1,0.7,0.2,1.1,0.2c0.4,0,0.8-0.1,1.1-0.2c0.3-0.1,0.7-0.4,0.9-0.6s0.4-0.6,0.6-0.9c0.1-0.3,0.2-0.7,0.2-1.1
		S18.1,13.7,17.9,13.4z"/></svg>