<svg viewBox="0 0 20 20"><path d="M14.8,6.1c-1.3-1.3-2.8-1.9-4.7-1.9h0l0.2-0.2c0.2-0.2,0.2-0.4,0.2-0.6c0-0.2-0.1-0.4-0.2-0.6c-0.2-0.2-0.4-0.2-0.6-0.2
				S9.2,2.5,9,2.7L7.3,4.4C7.2,4.5,7.1,4.6,7.1,4.7C7.1,4.8,7,4.9,7,5c0,0.1,0,0.2,0.1,0.3c0,0.1,0.1,0.2,0.2,0.3L9,7.4
				c0.2,0.2,0.4,0.3,0.6,0.3s0.4-0.1,0.6-0.3c0.2-0.2,0.2-0.4,0.2-0.6s-0.1-0.4-0.2-0.6L10,5.9h0c1.4,0,2.5,0.5,3.5,1.4
				s1.4,2.1,1.4,3.5c0,1.1-0.3,2.1-0.9,2.9c-0.3,0.4-0.6,0.7-1,1c-0.4,0.3-0.9,0.5-1.4,0.8c-1,0.3-1.9,0.4-2.9,0.1
				c-0.5-0.2-1-0.4-1.4-0.7c-0.1-0.1-0.2-0.1-0.3-0.2c-0.3-0.3-0.7-0.6-0.9-1c-0.6-0.9-0.9-1.8-0.9-2.9c0-0.5,0.1-1,0.2-1.5
				C5.5,8.8,5.7,8.4,6,7.9c0.1-0.2,0.2-0.4,0.2-0.6S6.1,6.9,6,6.8C5.8,6.6,5.5,6.5,5.3,6.5C5,6.5,4.8,6.6,4.7,6.8
				C4.2,7.4,3.9,8,3.7,8.7c-0.2,0.7-0.3,1.4-0.3,2.1c0,1.5,0.4,2.9,1.3,4c0.8,1.1,1.9,1.9,3.2,2.3c0.1,0,0.2,0.1,0.2,0.1
				c1.5,0.4,2.9,0.4,4.3-0.1c0.4-0.2,0.7-0.4,1-0.6c0.7-0.4,1.3-1,1.9-1.7c0.9-1.2,1.3-2.5,1.3-4C16.7,9,16,7.4,14.8,6.1z"/></svg>